<svg width="720" height="720" viewBox="0 0 720 720" fill="none" xmlns="http://www.w3.org/2000/svg">
<rect width="720" height="720" fill="#004990"/>
<path d="M360.362 511.119V361.901L385.2 388.876L482.469 365.331C483.545 365.331 483.545 366.423 482.469 366.423L391.446 397.842L360.362 511.119ZM377.943 475.17C421.446 467.374 456.619 430.341 464.875 382.085L456.62 385.515C448.293 425.822 418.286 458.411 380.025 467.374L377.943 475.17Z" fill="white"/>
<path d="M672.835 357.13V363.835H516.632V357.13H672.835ZM363.51 190.855H357.337V121H363.51V190.855Z" fill="white"/>
<path d="M497.974 360.725H360.578L385.415 333.75L363.736 228.112C363.736 226.943 364.741 226.943 364.741 228.112L393.671 326.967L497.974 360.725ZM464.873 341.631C457.695 294.386 423.596 256.186 379.163 247.22L382.321 256.185C419.434 265.229 449.442 297.818 457.695 339.37L464.873 341.631Z" fill="white"/>
<path d="M360.473 209.859V359.077L335.635 332.102L238.366 355.647C237.289 355.647 237.289 354.555 238.366 354.555L329.389 323.136L360.473 209.859ZM342.891 245.808C299.389 253.604 264.216 290.637 255.96 338.893L264.215 335.463C272.542 295.156 302.549 262.567 340.81 253.604L342.891 245.808Z" fill="white"/>
<path d="M48 363.848V357.143H204.203V363.848H48ZM357.325 530.123H363.498V599.978H357.325V530.123Z" fill="white"/>
<path d="M222.861 360.253H360.257L335.42 387.228L357.099 492.866C357.099 494.035 356.094 494.035 356.094 492.866L327.163 394.011L222.861 360.253ZM255.962 379.347C263.14 426.592 297.239 464.792 341.672 473.758L338.514 464.793C301.401 455.749 271.393 423.16 263.14 381.608L255.962 379.347Z" fill="white"/>
<path d="M343 246C298.932 253.854 264.12 291.956 257 339L265.187 335.656C273.374 295.299 303.061 262.797 339.937 254.941L343 246Z" fill="white"/>
</svg>
