<svg width="241" height="241" viewBox="0 0 241 241" fill="none" xmlns="http://www.w3.org/2000/svg">
<path d="M240.298 0.835449H0.297852V240.835H240.298V0.835449Z" fill="#CA0100"/>
<path d="M136.979 26.0004C136.897 26.0017 136.808 26.0126 136.669 26.0392C136.529 26.0659 136.326 26.0031 135.893 26.4465C135.521 26.8275 135.464 27.2726 135.466 27.513C135.468 27.7535 135.508 27.879 135.544 27.9978C135.616 28.2355 135.706 28.3907 135.796 28.5602C135.977 28.8993 136.203 29.2611 136.494 29.685C137.076 30.5327 137.883 31.6053 138.763 32.7101C140.523 34.9199 142.447 37.1753 143.747 38.2369C145.112 39.3517 147.135 40.5541 148.731 41.1263C150.04 41.596 151.559 41.9199 152.803 42.0184C153.547 42.54 154.773 43.3766 155.692 44.0157C154.923 44.0052 154.136 43.9195 153.404 43.9964C151.51 44.1952 148.708 44.8865 146.151 45.6447C144.873 46.0238 143.672 46.415 142.7 46.7889C142.214 46.9758 141.789 47.1693 141.42 47.3512C141.051 47.5331 140.758 47.6634 140.392 48.03C140.185 48.2377 139.94 48.6681 139.965 49.1353C139.991 49.6025 140.215 49.9189 140.373 50.0855C140.687 50.4188 140.879 50.46 141.051 50.5315C141.396 50.6746 141.706 50.7555 142.118 50.8418C142.942 51.0145 144.055 51.1686 145.337 51.2878C147.796 51.5165 151.308 51.8977 153.055 52.1411C154.979 52.4092 157.83 52.476 160.482 52.4126C161.808 52.3809 163.069 52.3193 164.128 52.2187C165.187 52.1181 165.963 52.0461 166.707 51.7532C167.266 52.1835 167.769 52.6864 168.317 53.1301C166.337 52.8189 164.211 52.6605 161.859 52.6647C160.42 52.6672 159.249 52.7054 158.31 52.781C157.372 52.8566 156.714 52.9254 156.061 53.1883C155.734 53.3197 155.274 53.491 154.975 54.1773C154.825 54.5204 154.812 54.9746 154.917 55.302C155.021 55.6294 155.176 55.8448 155.324 56.0001C155.915 56.6216 156.459 56.7519 157.263 57.0473C158.195 57.3896 161.508 58.8716 164.322 60.247C167.264 61.6852 170.988 63.1393 173.107 63.5824C175.027 63.9843 177.811 64.3251 179.603 64.3581C179.609 64.3582 179.616 64.3582 179.622 64.3581H179.758C180.227 64.9387 180.694 65.5214 181.154 66.1228C181.161 66.1293 181.167 66.1358 181.174 66.1422C181.354 66.3724 181.5 66.6273 181.678 66.8597C181.418 66.7394 181.186 66.5853 180.921 66.4718C178.828 65.5739 176.083 64.6825 173.746 64.0672C172.578 63.7596 171.52 63.523 170.663 63.3885C170.235 63.3212 169.863 63.2757 169.5 63.2721C169.318 63.2703 169.142 63.2873 168.918 63.3303C168.694 63.3733 168.383 63.4093 168.006 63.7957C167.683 64.1267 167.588 64.6001 167.599 64.8623C167.61 65.1244 167.673 65.2629 167.715 65.3665C167.801 65.5736 167.854 65.6396 167.909 65.7155C168.02 65.8673 168.11 65.9679 168.22 66.084C168.44 66.316 168.721 66.5776 169.073 66.8984C169.776 67.5401 170.753 68.3716 171.846 69.2643C173.994 71.0177 177.098 73.5923 178.73 74.9656C180.322 76.3048 182.528 77.8262 184.625 79.1155C186.723 80.4048 188.545 81.4405 189.958 81.811C190.26 81.8901 190.473 81.9122 190.734 81.9661C191.296 83.1914 191.82 84.4363 192.324 85.6894C190.394 83.9407 188.394 82.4701 185.246 80.7832C183.716 79.9637 182.332 79.2726 181.29 78.8052C180.769 78.5715 180.339 78.3843 179.971 78.2622C179.787 78.2012 179.639 78.1581 179.37 78.1265C179.236 78.1107 179.076 78.0738 178.711 78.1846C178.528 78.24 178.282 78.3479 178.051 78.6113C177.821 78.8746 177.683 79.2719 177.683 79.5615C177.683 80.3663 177.898 80.4032 178.032 80.628C178.166 80.8529 178.314 81.0622 178.497 81.3068C178.865 81.7958 179.348 82.3702 179.874 82.9357C181.688 84.8853 184.453 88.9459 185.983 91.9724C186.73 93.4512 188.21 95.1816 189.958 96.9756C191.706 98.7696 193.681 100.525 195.427 101.707C196.163 102.206 196.639 102.439 197.172 102.716C197.428 104.168 197.593 105.634 197.773 107.098C196.885 105.756 195.712 104.429 193.856 102.58C191.607 100.339 189.137 97.8644 188.426 97.1308L187.069 95.7345C186.848 95.5121 186.56 95.3691 186.25 95.3281C185.939 95.287 185.624 95.3502 185.353 95.5078C185.083 95.6653 184.872 95.9082 184.754 96.1985C184.636 96.4887 184.618 96.8098 184.703 97.1114L185.11 98.5076C189.056 112.363 191.551 118.106 196.106 123.64C196.949 124.664 197.442 125.295 197.967 125.773C198.008 125.81 198.061 125.851 198.103 125.889C197.991 127.074 197.88 128.256 197.715 129.438C197.715 129.445 197.715 129.451 197.715 129.457C197.659 129.884 197.526 130.293 197.463 130.718C197.416 130.576 197.416 130.412 197.366 130.272C196.732 128.487 194.876 125.127 193.042 122.011C192.124 120.453 191.215 119.004 190.501 117.938C190.144 117.406 189.849 116.978 189.57 116.639C189.431 116.47 189.318 116.329 189.105 116.154C188.998 116.067 188.877 115.949 188.562 115.844C188.246 115.739 187.431 115.792 187.011 116.251C186.516 116.791 186.666 116.913 186.642 117.046C186.618 117.179 186.611 117.268 186.603 117.376C186.588 117.592 186.584 117.826 186.584 118.113C186.584 118.687 186.605 119.457 186.642 120.362C186.717 122.174 186.842 124.549 187.011 126.995C187.179 129.44 187.382 131.943 187.573 133.995C187.764 136.047 187.911 137.529 188.116 138.397C188.504 140.044 189.241 142.011 190.055 143.827C190.869 145.643 191.679 147.227 192.576 148.248C192.65 148.333 192.7 148.384 192.77 148.462C191.984 150.473 191.143 152.46 190.21 154.396C190.221 152.399 190.105 150.376 189.764 148.404C189.043 144.229 188.1 140.771 187.224 138.766C187.005 138.264 186.801 137.862 186.526 137.486C186.388 137.298 186.223 137.111 185.963 136.923C185.704 136.735 185.256 136.519 184.703 136.613C184.15 136.708 183.761 137.082 183.578 137.369C183.396 137.657 183.325 137.901 183.268 138.145C183.153 138.634 183.116 139.164 183.113 139.832C183.113 139.831 182.941 141.108 182.647 142.566C182.353 144.025 181.95 145.865 181.503 147.686C180.211 152.955 179.518 156.59 179.448 159.729C179.378 162.867 179.974 165.462 181.115 168.416L181.29 168.882C180.277 170.206 179.236 171.505 178.148 172.76C178.246 172.108 178.365 171.518 178.439 170.821C178.756 167.849 178.852 164.559 178.614 161.629L178.226 156.955C178.206 156.645 178.085 156.35 177.881 156.115C177.677 155.881 177.401 155.72 177.096 155.659C176.791 155.597 176.475 155.637 176.195 155.773C175.916 155.91 175.689 156.134 175.55 156.412L173.165 160.97C171.87 163.452 170.177 166.398 169.635 167.175C166.656 171.455 165.585 174.906 165.291 181.041L165.117 184.822C164.415 185.341 163.715 185.849 163.003 186.335C162.997 186.335 162.99 186.335 162.984 186.335C162.383 186.754 161.732 187.077 161.122 187.479C162.776 184.192 164.05 180.448 164.671 176.425L165.098 173.575C165.141 173.284 165.093 172.987 164.96 172.725C164.827 172.463 164.616 172.249 164.356 172.112C164.096 171.976 163.8 171.924 163.509 171.963C163.217 172.003 162.946 172.132 162.732 172.333L159.416 175.514C154.222 180.486 150.881 183.935 148.711 186.858C146.541 189.781 145.551 192.273 145.201 194.945C145.177 195.128 145.18 195.231 145.162 195.391C143.911 195.829 142.651 196.24 141.381 196.612C142.112 195.809 142.845 195.008 143.533 194.111C145.444 191.62 147.056 189.043 147.586 186.878L147.935 185.462C147.996 185.202 147.981 184.93 147.893 184.677C147.805 184.425 147.648 184.203 147.439 184.036C147.23 183.87 146.978 183.766 146.712 183.737C146.447 183.708 146.178 183.755 145.938 183.872L143.262 185.191C141.9 185.864 139.106 186.997 137.27 187.615C135.227 188.302 132.776 189.392 131.394 190.329C129.881 191.356 128.267 193.061 126.914 194.79C126.238 195.654 125.641 196.519 125.189 197.311C124.778 198.029 124.454 198.629 124.393 199.463C121.761 199.61 119.135 199.61 116.501 199.482L115.938 198.106C115.939 198.099 115.939 198.093 115.938 198.086C113.822 192.896 110.095 189.897 103.043 187.44C101.045 186.744 98.2724 185.575 97.1281 184.977L94.7816 183.755C94.5359 183.626 94.2573 183.571 93.9808 183.599C93.7043 183.627 93.4421 183.735 93.2269 183.911C93.0117 184.087 92.8531 184.322 92.771 184.588C92.6888 184.853 92.6867 185.137 92.7649 185.404L93.1333 186.684C93.8545 189.16 95.7893 192.057 98.0201 194.751C98.6912 195.561 99.3974 196.251 100.095 196.981C98.5486 196.57 97.0139 196.082 95.4991 195.565C95.4885 195.309 95.531 195.099 95.4991 194.809C95.2484 192.53 94.649 190.555 93.1527 188.332C91.6564 186.109 89.3286 183.587 85.5316 179.741L78.2014 172.314C77.9927 172.104 77.7235 171.965 77.4316 171.916C77.1397 171.867 76.8398 171.911 76.5742 172.042C76.3087 172.173 76.0908 172.383 75.9513 172.644C75.8118 172.905 75.7578 173.204 75.7967 173.497L76.1458 175.902C76.3616 177.443 77.1005 180.477 77.8717 183.019C78.4377 184.884 79.1484 186.598 79.966 188.177C78.4838 187.243 77.0643 186.226 75.6416 185.191L75.6804 184.977C76.9138 179.835 74.5981 172.078 70.5996 166.089C69.9008 165.042 68.3334 162.292 67.2642 160.194L65.2668 156.296C65.125 156.015 64.8932 155.789 64.6083 155.654C64.3234 155.52 64.0017 155.484 63.6943 155.553C63.3869 155.622 63.1113 155.792 62.9114 156.036C62.7115 156.279 62.5986 156.582 62.5907 156.897L62.4162 164.15C62.3292 167.808 62.4973 171.379 62.8234 173.613C61.6368 172.281 60.5118 170.872 59.4104 169.463C59.5886 169.138 59.6928 168.799 59.837 168.416C60.1193 167.667 60.3719 166.755 60.5933 165.76C61.036 163.769 61.3534 161.448 61.3496 159.477C61.3446 156.895 60.6118 152.634 59.4104 147.686C58.8933 145.557 58.4192 143.431 58.0723 141.733C57.7254 140.035 57.5122 138.572 57.5099 138.494C57.498 138.078 57.4947 137.761 57.4518 137.428C57.4303 137.261 57.4549 137.121 57.2385 136.73C57.1302 136.534 56.8991 136.195 56.424 136.031C55.949 135.868 55.4247 136.024 55.1829 136.167C54.6993 136.453 54.6795 136.632 54.5818 136.788C54.4841 136.943 54.4148 137.082 54.3297 137.253C54.1595 137.596 53.9488 138.034 53.6897 138.611C52.1976 141.934 50.3543 150.768 50.3543 154.473C50.3543 154.645 50.4018 154.951 50.4124 155.152C49.83 153.971 49.2313 152.795 48.7059 151.584C48.706 151.577 48.706 151.571 48.7059 151.565C48.2868 150.623 47.9428 149.652 47.5618 148.695C47.6778 148.591 47.8541 148.491 47.969 148.384C49.7752 146.711 51.2752 143.467 52.3904 139.852C52.6384 139.048 52.7775 137.936 52.9722 136.303C53.1669 134.67 53.372 132.639 53.554 130.466C53.9179 126.12 54.2083 121.23 54.2521 117.919C54.2546 117.715 54.2761 117.44 54.0388 117.027C53.8014 116.614 53.112 116.263 52.7007 116.271C51.9979 116.283 51.8103 116.54 51.6147 116.698C51.4192 116.855 51.2692 117.024 51.1105 117.202C50.7933 117.558 50.4555 117.991 50.0828 118.52C49.3372 119.579 48.453 120.981 47.5618 122.496C45.7794 125.524 43.9948 128.863 43.3537 130.99C43.1932 131.522 43.1119 132.061 42.9852 132.599C42.6457 130.642 42.3731 128.683 42.1708 126.704C42.1757 126.701 42.1664 126.688 42.1708 126.684C42.279 126.608 42.3362 126.524 42.4035 126.471C42.5496 126.355 42.6543 126.243 42.7719 126.122C43.0072 125.88 43.2544 125.587 43.5476 125.23C44.134 124.515 44.8661 123.57 45.6226 122.535C47.1356 120.464 48.7497 118.1 49.5786 116.601C50.7541 114.474 52.334 109.757 54.989 100.932C55.2311 100.127 55.4469 99.3714 55.6095 98.7792C55.6908 98.4831 55.7537 98.2256 55.8034 98.0229C55.8283 97.9215 55.8632 97.8384 55.881 97.7514C55.8988 97.6644 55.9198 97.6606 55.9198 97.3442C55.9201 96.8122 55.4034 96.1903 55.0665 96.0449C54.7297 95.8995 54.5538 95.9227 54.4266 95.9286C54.1722 95.9403 54.0696 95.984 53.9224 96.0449C53.4998 96.2199 53.5348 96.264 53.4182 96.3552C53.3016 96.4463 53.1769 96.5392 53.0304 96.6655C52.7373 96.918 52.3694 97.2638 51.925 97.6738C51.0363 98.494 49.8629 99.6057 48.5896 100.854C45.4923 103.891 43.6031 106.294 42.2096 108.941C42.4052 107.017 42.6825 105.105 43.0046 103.201C43.3837 103.085 43.6875 102.901 44.013 102.696C44.4742 102.407 45.0038 102.03 45.7001 101.533C49.3964 98.8947 53.0316 94.7613 56.6955 89.1413C58.4749 86.4119 60.7603 83.1422 61.5823 82.1407C62.0708 81.5455 62.4869 81.0173 62.7846 80.5894C62.9334 80.3754 63.0582 80.1933 63.1725 79.9688C63.2295 79.8566 63.293 79.7713 63.347 79.4258C63.374 79.2531 63.4369 78.9677 63.1918 78.5144C62.9468 78.0611 62.2808 77.7581 61.9314 77.7581C61.1859 77.7581 61.0319 77.9298 60.6127 78.1072C60.1935 78.2845 59.6955 78.5216 59.1389 78.8053C58.0257 79.3727 56.6611 80.1423 55.2605 80.9578C52.4592 82.5889 49.6782 84.3002 48.3956 85.4568C48.1381 85.6891 47.9631 85.9559 47.7169 86.1937C48.2573 84.828 48.8124 83.4726 49.4234 82.1407C50.3613 82.024 51.2894 81.6908 52.4098 81.1711C53.7449 80.552 55.2603 79.7102 56.8506 78.7277C60.0313 76.7629 63.4337 74.2755 65.8292 71.9793C66.8133 71.0359 68.9872 69.1855 70.5221 68.0039C71.3426 67.3722 71.9514 66.8817 72.4031 66.4137C72.629 66.1797 72.8429 65.9884 73.0237 65.5023C73.114 65.2592 73.1992 64.8885 73.0624 64.4551C72.9257 64.0218 72.5646 63.6714 72.2868 63.5243C71.731 63.2301 71.4168 63.2977 71.0844 63.311C70.7521 63.3243 70.4047 63.3773 69.9985 63.4467C69.1861 63.5856 68.1429 63.8155 66.7794 64.1448C63.6454 64.9018 60.6896 66.0651 58.0335 67.4997C58.8108 66.4504 59.5911 65.4039 60.4188 64.3969H61.0975C65.8814 64.3811 71.1438 62.9857 76.0876 60.4797C78.4395 59.2876 81.6015 57.841 82.9136 57.3382C83.8439 56.9818 84.4847 56.7237 85.0662 56.2522C85.3569 56.0165 85.7882 55.6603 85.8225 54.8754C85.8396 54.483 85.6734 54.0671 85.4734 53.8088C85.2735 53.5505 85.0766 53.4066 84.8916 53.3046C84.1519 52.8968 83.5184 52.8645 82.5646 52.781C81.6108 52.6976 80.3988 52.6674 78.8801 52.6647C76.1592 52.6597 73.8088 52.8503 71.6662 53.2271C72.3505 52.6695 73.04 52.1142 73.7412 51.5787C73.869 51.627 73.987 51.6684 74.129 51.7145C74.6294 51.8769 75.2361 52.0375 75.8549 52.1605C79.3769 52.8603 83.3292 52.7345 89.7785 51.8502C93.0382 51.4033 96.8028 51.0376 97.6129 51.0358C98.2572 51.0345 98.8445 50.9738 99.3582 50.8612C99.615 50.805 99.8456 50.7572 100.134 50.6091C100.278 50.5351 100.447 50.4434 100.638 50.2407C100.83 50.0379 101.065 49.6469 101.065 49.1741C101.065 48.6428 100.855 48.3946 100.735 48.2433C100.615 48.092 100.508 48.0192 100.425 47.9524C100.257 47.8189 100.136 47.7312 99.9787 47.6421C99.6632 47.464 99.2714 47.2793 98.8152 47.0798C97.9029 46.6807 96.7042 46.2198 95.3634 45.7611C91.4047 44.4068 87.3249 43.8851 83.6118 44.0934C84.4269 43.4667 85.5219 42.6389 86.1909 42.1154C86.4622 42.1354 86.7179 42.1154 87.0054 42.1154C91.4309 42.1154 95.1183 40.1946 99.3194 35.8905C101.487 33.67 103.19 31.602 104.187 30.0729C104.685 29.3083 105.07 28.8479 105.156 27.9009C105.178 27.6642 105.192 27.358 105.021 26.9895C104.849 26.621 104.424 26.2591 104.051 26.1362C103.306 25.8906 102.93 26.1159 102.558 26.272C102.453 26.3162 101.725 26.5594 100.871 26.815C100.016 27.0705 98.9547 27.3763 97.9232 27.6488C93.5753 28.7974 90.5618 29.9409 88.3822 31.663C86.341 33.2759 85.2011 35.4231 84.562 38.0624C83.4834 38.7401 82.5221 39.3992 81.3817 40.1374C82.2618 38.315 82.9986 36.2963 83.6312 33.7768L84.6008 29.9177C84.67 29.6499 84.6592 29.3677 84.5697 29.1059C84.4802 28.8442 84.3158 28.6145 84.097 28.4452C83.8782 28.276 83.6146 28.1746 83.3388 28.1537C83.0629 28.1328 82.787 28.1932 82.5452 28.3276L81.3817 28.9675C80.5254 29.43 78.6565 30.6542 76.8633 31.8957C69.7021 36.854 65.6205 43.2981 67.0315 49.0578C67.1362 49.4852 67.264 49.8665 67.3999 50.2019C66.0855 51.3253 64.8067 52.4891 63.5603 53.6925C64.4996 50.3209 64.7775 46.5429 64.3554 42.4838V42.4645L63.9869 38.8575C63.9634 38.5745 63.8551 38.305 63.6762 38.0844C63.4974 37.8637 63.2562 37.702 62.9841 37.6204C62.712 37.5388 62.4217 37.541 62.1509 37.6268C61.8801 37.7125 61.6414 37.8779 61.4659 38.1012L57.9754 42.4451C55.9947 44.9055 53.7977 48.0741 52.8946 49.9304C51.1517 53.513 50.7019 58.3751 51.5953 62.5935C51.7509 63.328 51.9509 63.997 52.1965 64.5521C52.3193 64.8297 52.4444 65.0658 52.6425 65.3278C52.7515 65.4719 52.9185 65.6706 53.1661 65.832C52.1096 67.3172 51.0487 68.7949 50.0828 70.3504C50.0834 70.2851 50.1021 70.2217 50.1021 70.1564C50.1071 66.6845 49.6687 64.3022 48.2017 59.7429L46.3595 54.0221C46.2662 53.7422 46.0876 53.4986 45.8489 53.3253C45.6103 53.1519 45.3233 53.0576 45.0283 53.0554C44.7334 53.0533 44.4451 53.1435 44.2039 53.3133C43.9627 53.4832 43.7807 53.7243 43.6834 54.0027L42.132 58.6956C40.0366 65.0374 38.8998 69.2911 38.7771 72.8907C38.6545 76.4902 39.6408 79.3671 41.4727 82.548C41.4726 82.5544 41.4726 82.5609 41.4727 82.5673L42.5974 84.4871C42.679 84.6268 42.7839 84.7514 42.9077 84.8556C42.1989 86.6712 41.5417 88.5081 40.9491 90.3823C40.5625 89.1447 40.2344 87.916 39.7467 86.7172C38.9522 84.7637 38.265 83.1855 37.3615 82.1601C37.3065 82.0976 36.8532 81.4896 36.3919 80.7832C35.9306 80.0769 35.3968 79.2073 34.8987 78.3592C34.4464 77.589 34.095 77 33.8128 76.5557C33.5305 76.1115 33.4597 75.8633 32.9013 75.4504C32.7617 75.3472 32.5698 75.1993 32.2226 75.1401C31.8754 75.0809 31.3607 75.2013 31.0591 75.431C30.4558 75.8904 30.5001 76.2557 30.4579 76.4782C30.3736 76.9231 30.3837 77.2228 30.3803 77.6611C30.3741 78.4787 30.1854 82.1356 29.9537 85.5149C29.605 90.6007 29.8666 94.752 30.8264 98.081C31.7862 101.41 33.5063 103.948 36.0041 105.508C36.5542 105.852 36.9852 106.109 37.4391 106.323C37.1438 108.685 36.9497 111.078 36.8379 113.498C36.2782 112.559 35.7314 111.622 35.112 110.686C34.1854 109.286 33.2212 107.951 32.339 106.846C31.4567 105.742 30.7046 104.899 29.8955 104.325C29.2519 103.869 27.7426 102.657 26.6958 101.766C25.9206 101.105 25.6333 100.757 24.8536 100.447C24.6587 100.369 24.3797 100.235 23.8452 100.369C23.3107 100.504 22.8136 101.153 22.7398 101.533C22.5924 102.293 22.793 102.439 22.895 102.716C22.8829 102.683 23.1273 103.656 23.341 104.752C23.5547 105.848 23.797 107.23 24.0197 108.611C25.6485 118.706 28.6242 124.856 34.0067 128.488C34.8619 129.065 35.723 129.587 36.4501 129.981C36.8136 130.178 37.1363 130.356 37.4391 130.485C37.4989 130.511 37.5998 130.518 37.6524 130.543C37.9592 132.693 38.3022 134.831 38.7578 136.923C38.048 136.255 37.3306 135.641 36.5858 135.178C35.6038 134.567 33.2686 133.012 31.5439 131.785C29.7565 130.512 27.1962 128.803 25.7068 127.925L23.1471 126.413C22.8848 126.254 22.578 126.184 22.2728 126.215C21.9677 126.246 21.6808 126.375 21.4553 126.583C21.2299 126.791 21.0782 127.066 21.023 127.368C20.9679 127.67 21.0124 127.981 21.1497 128.255L24.4076 134.965C26.2097 138.692 28.4785 142.98 29.6434 144.777C32.161 148.662 36.2366 151.959 40.4837 153.504C42.1384 154.106 43.141 154.498 44.1294 154.609C44.2731 154.625 44.4491 154.594 44.6142 154.59C45.5826 156.748 46.5897 158.873 47.7169 160.931C44.2253 158.858 39.9284 157.008 36.8767 156.393C35.2973 156.075 32.9946 155.394 32.0287 155.016C31.2975 154.73 30.7354 154.52 30.264 154.376C30.0283 154.305 29.8122 154.253 29.5465 154.221C29.2808 154.19 28.8479 154.037 28.2278 154.57C27.9178 154.837 27.7235 155.311 27.7042 155.637C27.685 155.963 27.761 156.177 27.8206 156.335C27.9398 156.651 28.052 156.806 28.189 156.994C28.4632 157.371 28.8249 157.773 29.2944 158.294C30.1019 159.189 31.9324 161.506 33.231 163.277C35.9016 166.921 41.3803 171.8 45.0602 173.749C46.3642 174.44 48.634 175.168 50.587 175.611C51.5593 175.831 52.5582 175.998 53.4182 176.096C54.2782 176.193 54.8474 176.287 55.6289 176.115C56.0708 176.018 57.021 175.924 57.3936 175.921C57.6114 175.919 57.8184 175.916 58.1305 175.843C59.7371 177.711 61.3994 179.518 63.1531 181.234C63.0244 181.207 62.9356 181.15 62.7846 181.118C62.1444 180.982 61.3534 180.838 60.4382 180.691C58.6077 180.399 56.2946 180.099 53.9224 179.819C49.1779 179.258 44.3362 178.788 42.2096 178.849C41.9688 178.856 41.7621 178.87 41.5502 178.907C41.3384 178.945 41.1717 178.902 40.7164 179.237C40.7157 179.238 40.2901 179.74 40.2897 179.741C40.2895 179.742 40.1971 179.956 40.1734 180.052C40.1497 180.147 40.1388 180.222 40.1346 180.304C40.1177 180.629 40.2008 180.823 40.2509 180.944C40.3512 181.185 40.4144 181.23 40.4643 181.293C40.5639 181.417 40.6187 181.47 40.6776 181.525C40.7954 181.636 40.9097 181.728 41.0654 181.855C41.3768 182.108 41.8071 182.458 42.3453 182.863C43.4217 183.674 44.9226 184.745 46.5922 185.927C52.6173 190.195 54.5616 191.176 60.8648 193.18C65.0382 194.507 70.7439 194.38 74.4975 192.773L76.4367 191.939C76.4698 191.921 76.5021 191.901 76.5336 191.881C78.914 193.411 81.3718 194.81 83.9026 196.089C83.4608 196.08 83.0329 196.046 82.584 196.05C79.6105 196.08 76.4805 196.399 73.3533 197.039C70.466 197.63 66.3052 198.429 64.1421 198.804L60.1473 199.482C59.831 199.536 59.5422 199.695 59.3282 199.934C59.1143 200.173 58.9879 200.477 58.9699 200.797C58.9519 201.118 59.0432 201.434 59.229 201.696C59.4147 201.957 59.6838 202.148 59.9921 202.236L62.358 202.915C63.6202 203.276 67.129 204.353 70.1148 205.281C79.8882 208.318 90.3867 207.702 95.6737 202.973L97.3802 201.441C99.3288 202.018 101.291 202.543 103.295 202.973C103.277 202.98 103.254 202.986 103.237 202.992C101.575 203.638 96.9972 205.864 92.6485 208.034C90.4742 209.119 88.4017 210.168 86.8503 210.982C86.0746 211.389 85.4353 211.727 84.9693 211.99C84.7362 212.122 84.5493 212.235 84.3875 212.339C84.3066 212.392 84.2362 212.452 84.1354 212.533C84.0849 212.574 84.0176 212.601 83.9221 212.708C83.8265 212.815 83.5554 212.931 83.5536 213.677C83.5524 214.161 83.8266 214.568 84.019 214.744C84.2115 214.92 84.3444 214.973 84.4457 215.016C84.6482 215.101 84.758 215.096 84.8529 215.113C85.0426 215.145 85.1801 215.162 85.3571 215.171C85.7112 215.188 86.1582 215.198 86.6952 215.19C87.7691 215.173 89.2057 215.099 90.7481 215.016C93.8329 214.848 97.2852 214.591 99.1061 214.317C104.113 213.565 110.275 211.563 113.282 209.469C114.541 208.593 116.218 207.008 117.354 205.649L118.072 204.796C118.754 204.811 119.431 204.815 120.108 204.815C120.919 204.815 121.728 204.801 122.532 204.776L124.956 207.084C128.075 210.073 129.52 210.948 133.566 212.223C140.239 214.325 141.126 214.486 148.285 214.919C150.077 215.027 151.776 215.122 153.074 215.209C154.373 215.297 155.441 215.392 155.382 215.384C155.734 215.43 156.047 215.438 156.429 215.326C156.62 215.27 156.837 215.188 157.089 214.977C157.34 214.765 157.651 214.315 157.651 213.794C157.651 212.988 157.332 212.862 157.205 212.727C157.078 212.592 156.979 212.516 156.875 212.436C156.668 212.278 156.46 212.15 156.197 211.99C155.67 211.671 154.987 211.297 154.257 210.924C152.799 210.177 151.229 209.43 150.127 209.101C149.755 208.99 148.168 208.207 147.218 207.55C144.671 205.787 140.982 204.207 137.212 202.973C139.406 202.494 141.561 201.902 143.689 201.247C143.757 201.365 143.79 201.555 143.863 201.654C144.29 202.233 144.841 202.681 145.531 203.167C146.911 204.139 148.837 205.14 150.903 205.901C153.214 206.753 155.713 207.089 159.454 207.104C163.982 207.121 165.965 206.773 172.816 204.699C176.301 203.644 178.148 203.078 179.215 202.585C179.482 202.462 179.708 202.365 179.991 202.12C180.132 201.997 180.317 201.83 180.456 201.499C180.595 201.169 180.589 200.624 180.417 200.258C180.073 199.526 179.674 199.48 179.428 199.385C179.183 199.291 178.98 199.242 178.75 199.192C170.261 197.332 161.566 195.934 157.826 195.934C157.456 195.934 156.977 196.006 156.565 196.031C159.363 194.605 162.059 193.012 164.671 191.28C164.836 191.662 165.071 192.01 165.33 192.23C165.877 192.694 166.357 192.849 166.998 193.083C167.639 193.317 168.379 193.517 169.112 193.665C174.172 194.684 178.737 194.033 184.975 191.473C186.669 190.778 189.929 188.751 193.158 186.645C194.773 185.592 196.336 184.544 197.541 183.678C198.143 183.245 198.647 182.844 199.053 182.514C199.46 182.185 199.691 182.119 200.062 181.506C200.259 181.18 200.363 180.31 200.003 179.819C199.644 179.328 199.318 179.262 199.092 179.198C198.64 179.07 198.297 179.069 197.793 179.062C196.107 179.041 192.927 179.271 186.991 179.78C182.939 180.127 179.548 180.801 176.52 181.816C178.587 179.829 180.548 177.726 182.415 175.533C182.577 175.618 182.726 175.693 182.88 175.746C183.267 175.88 183.716 175.98 184.199 176.057C186.012 176.344 188.325 176.005 190.676 175.436C193.027 174.867 195.29 174.076 196.843 173.012C203.565 168.406 205.596 166.465 208.827 161.551C209.3 160.832 209.896 160.044 210.456 159.399C211.016 158.754 211.609 158.237 211.755 158.138C212.435 157.682 212.855 157.469 213.287 156.762C213.395 156.585 213.526 156.333 213.539 155.928C213.553 155.522 213.312 154.971 212.996 154.706C212.364 154.175 211.99 154.303 211.678 154.318C210.925 154.354 210.171 154.584 209.06 154.958C207.848 155.366 205.419 156.025 203.862 156.354C200.391 157.088 195.771 159.296 191.975 161.823C193.301 159.474 194.545 157.072 195.66 154.59C195.882 154.632 196.109 154.676 196.3 154.667C197.338 154.618 198.363 154.225 200.081 153.581C204.23 152.028 208.064 149.207 210.475 145.863C211.634 144.255 213.773 140.165 215.73 136.264C216.709 134.313 217.621 132.451 218.251 131.048C218.567 130.346 218.802 129.779 218.969 129.322C219.052 129.093 219.132 128.911 219.182 128.662C219.207 128.538 219.242 128.407 219.202 128.081C219.182 127.917 219.152 127.674 218.911 127.363C218.669 127.052 218.139 126.799 217.767 126.801C217.398 126.803 217.331 126.866 217.243 126.898C217.155 126.929 217.09 126.947 217.03 126.975C216.91 127.031 216.793 127.097 216.661 127.169C216.398 127.312 216.084 127.496 215.692 127.731C214.908 128.202 213.864 128.855 212.705 129.593C210.387 131.069 207.597 132.908 205.453 134.383C203.828 135.501 202.484 136.68 201.264 137.912C201.812 135.53 202.17 133.077 202.524 130.621C202.639 130.608 202.775 130.626 202.873 130.602C203.99 130.328 204.951 129.68 206.519 128.721C211.951 125.399 215.208 118.928 216.719 109.387C216.926 108.083 217.168 106.734 217.398 105.624C217.628 104.515 217.877 103.567 217.941 103.394C218.125 102.9 218.258 102.458 218.29 101.979C218.306 101.739 218.325 101.49 218.193 101.106C218.127 100.914 218.005 100.681 217.747 100.447C217.489 100.212 217.068 100.04 216.719 100.04C216.03 100.04 215.935 100.237 215.75 100.35C215.565 100.463 215.405 100.577 215.226 100.718C214.869 101 214.457 101.365 213.985 101.804C213.042 102.683 211.878 103.857 210.669 105.12C208.251 107.646 205.749 110.424 204.638 112.063C204.115 112.835 203.764 113.626 203.339 114.409C203.247 111.816 203.158 109.222 202.854 106.691C203.336 106.588 203.742 106.404 204.134 106.167C204.67 105.844 205.209 105.434 205.743 104.965C206.812 104.028 207.83 102.897 208.458 101.727C210.993 97.0037 211.576 91.3413 210.747 81.6946L210.281 76.2648C210.261 75.9653 210.146 75.6802 209.952 75.4505C209.759 75.2209 209.498 75.0587 209.206 74.9874C208.915 74.9162 208.608 74.9395 208.331 75.0541C208.053 75.1687 207.82 75.3686 207.663 75.6248L205.297 79.3869C203.95 81.5169 202.081 84.8296 201.07 86.9111C200.225 88.6499 199.761 89.8252 199.499 91.2549C198.819 89.0238 198.074 86.8305 197.23 84.681C198.099 84.4189 198.367 83.9447 198.782 83.4205C199.726 82.2255 200.497 80.4365 201.148 78.5143C201.798 76.5921 202.279 74.6818 202.272 73.1426C202.265 71.4237 201.66 68.7231 200.779 65.444C199.898 62.1648 198.716 58.4432 197.502 55.2437C197.444 55.0922 197.353 54.8989 197.133 54.6813C196.914 54.4637 196.544 54.2648 196.222 54.2353C195.608 54.1788 195.254 54.4454 195.058 54.6038C194.863 54.7621 194.755 54.911 194.651 55.0498C194.443 55.3274 194.293 55.6203 194.108 55.9806C193.739 56.7013 193.324 57.66 192.867 58.87C191.348 62.8959 191.076 64.4574 191.044 69.9623C191.038 71.0128 191.111 71.3636 191.122 72.1342C189.878 70.0209 188.553 67.9763 187.146 65.9869C187.708 65.8689 188.101 65.5506 188.291 65.2888C188.52 64.972 188.656 64.6665 188.775 64.3386C189.015 63.6828 189.178 62.9107 189.318 62.0309C189.599 60.2715 189.736 58.1341 189.57 56.2909C189.333 53.6509 188.745 51.3862 187.437 48.9413C186.13 46.4963 184.148 43.8833 181.096 40.2924L179.002 37.8296C178.813 37.6025 178.559 37.4401 178.274 37.3649C177.989 37.2897 177.687 37.3056 177.411 37.4103C177.136 37.515 176.899 37.7034 176.736 37.9489C176.573 38.1945 176.49 38.485 176.5 38.7798L176.694 46.0324C176.781 49.2861 176.865 51.2324 177.121 52.8197C177.216 53.4082 177.378 53.9135 177.528 54.4292C176.147 53.0592 174.633 51.84 173.165 50.5702C173.193 50.5273 173.238 50.4745 173.262 50.4344C173.441 50.1288 173.531 49.8413 173.611 49.5424C173.771 48.9446 173.848 48.2874 173.882 47.5644C173.95 46.1185 173.839 44.4866 173.436 43.1042C172.872 41.1661 171.376 39.068 169.461 36.9181C167.546 34.7683 165.197 32.646 162.867 31.1005C161.767 30.3707 160.753 29.7387 159.978 29.2776C159.591 29.0471 159.281 28.8539 159.008 28.7153C158.872 28.6459 158.743 28.6002 158.582 28.5407C158.501 28.511 158.431 28.4726 158.252 28.4438C158.073 28.415 157.632 28.2073 156.992 28.8316C156.378 29.4292 156.536 29.7082 156.526 29.8982C156.516 30.0882 156.531 30.2331 156.546 30.383C156.576 30.6828 156.644 30.9927 156.72 31.372C156.873 32.1306 157.102 33.0985 157.379 34.1257C157.934 36.18 158.63 38.4397 159.222 39.8076C159.414 40.2518 159.712 40.7395 159.997 41.2232C158.857 40.5994 157.908 40.1003 156.526 39.3228C156.37 34.5321 151.9 30.225 146.229 28.5795C144.339 28.0312 141.589 27.2103 140.159 26.7566C139.497 26.5465 138.878 26.3624 138.356 26.2331C137.834 26.1037 137.564 25.993 136.979 26.0004Z" fill="#880606"/>
<path d="M136.994 27.4146C136.947 27.4152 136.909 27.4408 136.897 27.4533C136.508 27.8514 142.635 35.521 144.653 37.1688C145.837 38.1349 147.884 39.3111 149.211 39.7867C150.52 40.2565 152.378 40.6549 153.36 40.6788C155.343 42.0695 157.989 43.8967 161.234 46.1086C158.786 45.4499 155.946 45.1594 153.554 45.4105C150.18 45.7646 142.314 48.0963 141.396 49.0174C141.156 49.257 142.984 49.6396 145.468 49.8706C147.951 50.1017 151.468 50.5125 153.264 50.7627C156.777 51.2523 164.623 51.0454 166.179 50.433C166.492 50.3096 166.729 50.1842 166.877 50.0452C169.447 51.9813 171.914 54.0725 174.246 56.3088C170.89 54.775 166.906 54.0891 161.854 54.0981C156.192 54.1082 154.811 54.65 157.743 55.7271C158.862 56.1383 162.114 57.6145 164.957 59.0044C167.8 60.3942 171.597 61.8284 173.393 62.204C175.188 62.5797 177.988 62.9109 179.617 62.9409L180.432 62.9604C181.063 63.7222 181.672 64.5007 182.274 65.2874C183.868 67.3222 185.367 69.4408 186.754 71.6286C184.914 70.124 182.732 68.7892 180.354 67.7696C176.375 66.0631 169.523 64.2765 169.01 64.8026C168.908 64.9069 170.58 66.4193 172.733 68.1768C174.886 69.9344 177.991 72.513 179.637 73.8975C182.639 76.4227 188.366 79.9444 190.302 80.4521C190.897 80.6079 191.374 80.7052 191.738 80.743C193.395 84.2826 194.821 87.9474 195.984 91.6995C195.35 90.7901 194.565 89.8636 193.541 88.7519C190.81 85.7861 188.876 84.3429 184.582 82.0422C181.569 80.4282 179.094 79.3204 179.094 79.5794C179.094 79.8384 179.907 80.9004 180.897 81.9646C182.876 84.0921 185.634 88.1753 187.239 91.3504C188.412 93.6727 193.011 98.3778 196.236 100.562C197.321 101.296 198.037 101.721 198.486 101.861C199.444 107.081 199.936 112.407 199.94 117.724C199.629 115.67 199.098 113.497 198.428 111.673C197.173 108.261 196.35 107.081 192.862 103.606C190.611 101.363 188.156 98.8848 187.413 98.1183L186.075 96.722L186.463 98.1183C190.394 111.923 192.773 117.384 197.187 122.746C198.87 124.792 199.323 125.296 199.65 124.86C199.518 126.461 199.348 128.059 199.126 129.65C198.703 132.878 198.065 136.073 197.264 139.21C197.34 136.349 196.944 133.276 196.043 130.736C195.03 127.885 188.46 116.756 188.053 117.2C187.687 117.599 188.932 135.726 189.488 138.085C190.196 141.088 192.324 145.821 193.638 147.316C193.953 147.675 194.265 147.981 194.452 148.15C192.7 152.779 190.544 157.241 188.034 161.472C188.916 157.68 189.109 152.974 188.363 148.654C186.949 140.466 184.566 134.956 184.543 139.831C184.539 140.656 183.797 144.335 182.895 148.014C180.326 158.484 180.225 162.225 182.429 167.93L182.914 169.132C180.606 172.21 178.1 175.125 175.409 177.839C175.448 177.765 175.474 177.677 175.506 177.607C176.879 174.614 177.652 167.399 177.193 161.763L176.825 157.07L174.42 161.647C173.107 164.165 171.49 167.016 170.813 167.988C167.934 172.125 167.01 175.105 166.722 181.117L166.489 185.577C165.602 186.24 164.707 186.892 163.793 187.516C161.501 189.117 159.137 190.576 156.696 191.899C159.866 188.074 162.315 182.42 163.27 176.23L163.716 173.36L160.38 176.54C150.031 186.449 147.255 190.225 146.612 195.137C146.534 195.731 146.477 196.155 146.476 196.475C142.857 197.789 139.167 198.84 135.403 199.597C135.861 199.399 136.287 199.164 136.761 198.88C140.063 196.897 145.367 189.984 146.205 186.566L146.554 185.15L143.878 186.469C142.403 187.198 139.628 188.306 137.711 188.951C135.794 189.596 133.323 190.752 132.204 191.511C129.668 193.23 125.766 198.175 125.766 199.694C125.766 200.572 125.976 200.775 128.267 200.683C122.697 201.276 117.081 201.266 111.512 200.644C111.6 200.646 111.697 200.643 111.784 200.644L115.449 200.703L114.615 198.628C112.631 193.764 109.473 191.174 102.592 188.777C100.523 188.056 97.7759 186.931 96.4834 186.256L94.1175 185.014L94.486 186.314C95.6905 190.45 101.896 197.834 105.539 199.733C103.635 199.365 101.751 198.93 99.877 198.414C97.93 197.902 95.9942 197.306 94.0981 196.63C94.1786 196.241 94.1784 195.692 94.0981 194.963C93.6275 190.685 92.0808 188.387 84.5184 180.729L77.1882 173.321L77.5373 175.726C77.7225 177.048 78.492 180.151 79.2438 182.629C80.4782 186.699 82.2997 190.012 84.693 192.519C80.9745 190.582 77.4127 188.334 74.0273 185.81L74.2988 184.646C75.342 180.296 73.2174 172.583 69.412 166.883C68.6285 165.709 67.0926 162.979 65.9989 160.832L64.0209 156.935L63.8464 164.187C63.7499 168.247 63.946 172.712 64.2924 174.349C64.6377 175.981 65.522 177.86 66.7164 179.662C63.2463 176.383 60.0586 172.791 57.1755 168.938C57.4733 169.15 57.6917 169.257 57.7961 169.19C58.7323 168.598 59.9361 163.098 59.9292 159.475C59.9252 157.181 59.2161 152.904 58.0288 148.014C56.9865 143.722 56.116 139.451 56.0895 138.531C56.042 136.882 56.0173 136.89 54.9842 139.191C53.7565 141.925 51.7651 151.372 51.7651 154.472C51.7651 155.656 52.1815 158.524 52.6765 160.832C52.8912 161.833 53.0991 162.657 53.3359 163.392C51.0827 159.818 49.0946 156.066 47.4019 152.164C40.2934 136.198 38.5771 117.826 41.9721 100.6C41.9721 102.389 42.1093 102.385 44.8809 100.407C48.3605 97.923 51.9045 93.891 55.5078 88.364C57.3068 85.6046 59.5479 82.4163 60.4916 81.2665C61.4353 80.1168 62.0871 79.1722 61.9266 79.1722C60.8558 79.1722 51.3257 84.7495 49.3605 86.5218C46.716 88.9067 44.6948 91.5939 43.4459 94.3368C44.7257 89.6801 46.4041 85.1438 48.449 80.8011C48.5621 80.8344 48.696 80.8409 48.8757 80.8399C51.4132 80.8259 60.3189 75.3359 64.8742 70.9693C65.9378 69.9497 68.0984 68.1171 69.6834 66.897C72.8971 64.423 72.514 64.2136 67.1043 65.5201C61.2485 66.9345 55.9818 69.7876 52.4438 73.2382C54.6024 69.6171 57.0532 66.2082 59.7353 62.9991H61.1121C65.6218 62.9841 70.6731 61.6548 75.4429 59.2371C77.8371 58.0235 80.9861 56.569 82.4241 56.018C85.9284 54.6752 84.8581 54.1089 78.8753 54.0981C72.9615 54.0874 68.9092 54.8661 65.4172 56.8712C68.005 54.3516 70.7391 52.0014 73.62 49.8513C73.6428 49.9037 73.6915 49.9605 73.7364 50.0064C73.9254 50.2 74.9961 50.5391 76.1216 50.7627C79.4171 51.4175 83.2114 51.3283 89.5992 50.4525C92.8912 50.0011 96.4859 49.6211 97.6081 49.6186C98.7304 49.6156 99.6637 49.4353 99.6637 49.192C99.6637 48.9486 97.5118 48.0128 94.8932 47.117C88.8918 45.064 82.4518 44.8469 78.0996 46.5352C81.3867 44.059 83.9615 42.1067 85.8759 40.6012C86.0881 40.7036 86.4496 40.6982 87.0006 40.6982C91.0473 40.6982 94.2344 39.0717 98.3062 34.9C102.545 30.5573 105.026 26.7875 103.115 27.5891C102.562 27.8216 100.401 28.4514 98.3062 29.0048C89.7573 31.2632 86.9525 33.4958 85.8177 38.8948C85.8117 38.9213 85.8037 38.9272 85.7983 38.953C82.5096 41.0069 78.4353 43.7162 75.8889 45.4493C75.9959 45.3433 76.0986 45.2244 76.1992 45.1197C79.3527 41.8374 80.8842 38.8837 82.2495 33.4456L83.2191 29.5866L82.0556 30.2071C81.4137 30.5538 79.4407 31.8339 77.673 33.0578C70.7826 37.8285 67.2123 43.8637 68.4036 48.7266C68.5993 49.5254 68.8756 50.181 69.0047 50.181C69.1925 50.181 69.4641 50.0982 69.7998 49.9483C60.4837 57.5315 52.7713 67.1655 47.2855 78.2027C48.1677 75.798 48.697 72.9378 48.7011 70.1549C48.7061 66.7898 48.3083 64.6727 46.8589 60.168L45.0166 54.4667L43.4846 59.1402C39.3189 71.7481 39.166 75.73 42.6896 81.8484L43.8143 83.7876L45.0166 82.3332C45.3415 81.9463 45.6567 81.5121 45.9474 81.0339C43.7842 85.8115 42.0265 90.8311 40.731 96.0434C40.6922 94.9982 40.5704 94.002 40.3431 93.0182C39.5589 89.6238 37.4092 84.3596 36.2902 83.0895C35.8758 82.6191 34.6934 80.814 33.6722 79.0753C31.8674 76.002 31.8236 75.9607 31.8106 77.6791C31.8036 78.6512 31.5973 82.2346 31.3646 85.6299C30.681 95.6002 32.432 101.611 36.775 104.324C37.9939 105.085 38.5766 105.411 38.9663 105.177C38.3985 109.247 38.0936 113.412 38.0936 117.646C38.0936 118.131 38.1053 118.617 38.113 119.101C36.7724 115.379 31.2866 107.036 29.0763 105.468C28.3449 104.949 26.8595 103.789 25.7796 102.869C24.2733 101.586 23.9097 101.437 24.2089 102.249C24.4234 102.831 24.961 105.586 25.4112 108.377C27.012 118.299 29.8215 123.966 34.797 127.323C36.4352 128.428 38.1131 129.34 38.5203 129.34C38.64 129.34 38.7401 129.274 38.8305 129.146C39.4379 133.879 40.4244 138.497 41.7394 142.953C40.0065 140.132 37.8651 137.636 35.8441 136.379C34.7946 135.726 32.4932 134.172 30.744 132.927C28.9948 131.682 26.4139 129.996 25.004 129.165L22.4248 127.653L25.6827 134.362C27.4665 138.052 29.7708 142.398 30.8216 144.02C33.1513 147.614 37.0629 150.745 40.9637 152.164C44.2553 153.362 45.1241 153.622 45.1718 152.513C47.3723 157.675 50.0524 162.571 53.1419 167.135C51.9202 165.823 50.6632 164.623 49.632 163.858C46.2086 161.317 40.1132 158.476 36.6005 157.769C34.9186 157.43 32.6286 156.794 31.5003 156.353C28.6127 155.224 28.4937 155.318 30.3368 157.361C31.2354 158.358 33.0463 160.655 34.3704 162.461C36.8292 165.816 42.4315 170.767 45.7148 172.507C46.7208 173.04 49.0575 173.817 50.8925 174.233C52.7274 174.648 54.7153 174.888 55.3139 174.756C55.9124 174.624 56.838 174.508 57.3694 174.504C58.17 174.498 58.2517 174.379 57.7185 173.282C70.6067 189.075 88.8612 199.916 109.534 202.7C107.483 203.106 105.387 203.669 103.736 204.31C100.885 205.416 84.9652 213.36 84.9644 213.676C84.9637 214.001 95.5198 213.445 98.888 212.939C103.669 212.221 109.929 210.082 112.482 208.305C113.54 207.568 115.237 205.965 116.263 204.736L117.408 203.359C118.301 203.39 119.202 203.418 120.103 203.418C121.102 203.418 122.099 203.397 123.089 203.359L125.921 206.055C128.999 209.005 130.02 209.608 134.007 210.864C140.672 212.964 141.209 213.07 148.357 213.502C151.949 213.718 155.197 213.938 155.571 213.986C155.945 214.035 156.25 213.96 156.25 213.812C156.25 213.45 151.42 210.986 149.715 210.476C148.967 210.253 147.487 209.451 146.418 208.712C142.793 206.203 136.169 203.789 130.846 202.681C160.724 198.585 185.552 177.653 196.333 149.294C195.798 150.861 195.422 152.131 195.422 152.455C195.422 153.568 196.211 153.546 199.591 152.281C203.472 150.827 207.118 148.111 209.326 145.047C211.214 142.429 218.336 128.231 217.762 128.234C217.402 128.236 210.487 132.625 206.243 135.545C201.763 138.627 199.241 141.736 197.342 146.541C199.332 140.729 200.741 134.625 201.492 128.312C201.672 129.922 202.66 129.442 205.777 127.536C210.726 124.51 213.841 118.522 215.318 109.191C215.739 106.537 216.322 103.704 216.618 102.908C216.913 102.113 216.959 101.473 216.715 101.473C215.925 101.473 207.73 110.033 205.816 112.856C203.846 115.763 202.646 118.604 202.015 121.99C202.084 120.549 202.112 119.105 202.112 117.646C202.112 89.694 189.303 64.8543 169.495 49.192C170.493 49.7041 171.487 50.0472 171.764 49.9677C172.554 49.7405 172.755 45.7638 172.093 43.4907C171.223 40.5023 166.496 35.194 162.106 32.2821C159.937 30.8428 158.075 29.7425 157.976 29.8387C157.668 30.1391 159.475 36.8392 160.516 39.2438C161.412 41.3132 164.157 44.7161 166.586 47.0007C165.156 45.969 163.678 44.9709 162.184 44.0337C160.712 43.3241 157.872 41.7342 155.067 40.1553C155.128 40.0035 155.164 39.8129 155.164 39.5735C155.164 35.6411 151.136 31.4925 145.836 29.955C143.933 29.4028 141.182 28.555 139.728 28.0934C138.455 27.6895 137.322 27.4104 136.994 27.4146ZM177.911 38.7589L178.105 45.9922C178.278 52.4767 178.466 53.585 179.792 56.5027C180.666 58.4248 182.338 60.781 183.864 62.2234C185.289 63.5694 186.618 64.6636 186.831 64.6668C187.67 64.6797 188.451 59.7906 188.15 56.4446C187.698 51.4163 186.062 48.3272 180.005 41.2024L177.911 38.7589ZM62.5665 38.9916L59.0759 43.3355C57.1551 45.7216 54.9578 48.9692 54.1891 50.5493C52.634 53.7459 52.1441 58.4139 52.9674 62.301C53.2434 63.6041 53.7134 64.6668 54.0146 64.6668C54.3158 64.6668 55.863 63.3677 57.447 61.758C61.8721 57.2609 63.7886 50.6181 62.9544 42.6374L62.5665 38.9916ZM196.081 55.6495C195.788 55.6225 195.07 57.0154 194.181 59.3728C192.679 63.353 192.506 64.5075 192.474 69.9803C192.442 75.6831 192.535 76.3208 193.987 79.1721C194.846 80.8585 195.814 82.5777 196.14 82.9924C196.625 83.6096 196.918 83.5246 197.691 82.5464C199.099 80.7645 200.862 75.5161 200.852 73.1606C200.84 70.5229 198.562 62.0501 196.178 55.7658C196.154 55.7027 196.123 55.6533 196.081 55.6495ZM208.861 76.3991L206.495 80.1612C205.188 82.2273 203.313 85.5372 202.345 87.5302C200.696 90.925 200.596 91.529 200.6 97.0129C200.602 100.731 200.856 103.314 201.298 104.11C201.68 104.8 202.147 105.371 202.326 105.371C203.412 105.371 206.247 102.884 207.212 101.085C209.568 96.697 210.147 91.3745 209.326 81.8289L208.861 76.3991ZM54.4606 97.3426C54.2082 97.4471 52.1222 99.4007 49.5932 101.88C44.2986 107.072 42.6218 109.825 41.1188 115.901C40.519 118.326 40.3481 120.429 40.5952 122.455C40.7953 124.096 41.1519 125.442 41.3709 125.442C41.8609 125.442 46.8495 118.638 48.3521 115.92C49.3302 114.151 50.9779 109.328 53.6267 100.523C54.1053 98.9322 54.4994 97.5183 54.4994 97.362C54.4994 97.352 54.4774 97.3356 54.4606 97.3426ZM70.4397 98.0795C67.1373 98.1213 64.4766 99.0073 62.5277 100.736C60.5837 102.461 59.5579 104.817 59.522 107.659C59.4576 109.438 59.9202 111.209 60.86 112.992C61.8213 114.816 63.5949 116.78 66.2122 118.945L68.4617 120.807C68.4677 120.807 68.4746 120.807 68.4811 120.807C70.5712 122.495 72.0142 123.968 72.825 125.19C73.6276 126.399 74.0157 127.749 73.9885 129.301C73.9884 129.307 73.9884 129.314 73.9885 129.32C73.9905 130.855 73.4807 132.186 72.379 133.431C71.3241 134.623 69.7168 135.278 67.434 135.351C65.8045 135.369 64.3844 135.005 63.0901 134.265C61.8518 133.558 61.0441 132.42 60.6467 130.716C60.5831 130.402 60.5645 130.132 60.5497 129.824C60.5345 129.509 60.5274 129.221 60.5303 129.01C60.5363 128.734 60.4913 128.528 60.3752 128.312C60.299 128.17 60.1452 128.011 59.9873 127.943C59.8294 127.876 59.6996 127.864 59.5801 127.866C59.2442 127.863 58.8887 128.102 58.7462 128.409C58.624 128.672 58.5966 128.907 58.5717 129.204C58.5716 129.21 58.5716 129.217 58.5717 129.223C58.5385 129.649 58.4992 130.318 58.436 131.24C58.3717 132.177 58.3269 133.282 58.3196 134.556C58.3065 135.233 58.3246 135.685 58.4748 136.088C58.6353 136.52 59.0129 136.81 59.4444 136.999C60.5171 137.514 61.6016 137.87 62.7798 138.085C63.9461 138.298 65.1387 138.402 66.348 138.396C67.7549 138.402 69.1386 138.235 70.4785 137.892C71.8327 137.545 73.0795 136.967 74.2212 136.185C74.2344 136.179 74.2473 136.173 74.26 136.166C76.008 134.829 77.2287 133.326 77.8669 131.628C78.4694 130.025 78.775 128.638 78.7396 127.439C78.7394 127.433 78.7398 127.426 78.7396 127.42C78.7398 127.413 78.7394 127.407 78.7396 127.4C78.7999 125.36 78.2888 123.379 77.227 121.505C76.1405 119.588 74.1272 117.517 71.2154 115.222L69.8192 114.136C67.4932 112.345 65.899 110.834 65.0875 109.715C64.2749 108.594 63.9214 107.471 63.9627 106.244C64.0005 104.532 64.5216 103.293 65.5335 102.404C66.5676 101.496 67.841 101.04 69.4895 101.027C71.6809 101.101 73.1502 101.501 73.8721 102.035C74.3074 102.358 74.6421 102.628 74.8611 102.85C75.0801 103.072 75.1718 103.259 75.1714 103.257C75.1814 103.291 75.1944 103.323 75.2102 103.354C75.3394 103.61 75.4637 103.964 75.5786 104.44C75.6953 104.923 75.7447 105.317 75.7726 105.623C75.7979 105.881 75.8613 106.09 75.9471 106.282C76.08 106.581 76.4807 106.821 76.7809 106.825C76.9872 106.829 77.2174 106.717 77.3627 106.573C77.5081 106.43 77.5686 106.282 77.6148 106.127C77.7085 105.812 77.7322 105.482 77.7312 105.061C77.7392 103.378 77.7717 102.113 77.8282 101.279C77.8864 100.419 77.9176 99.9307 77.9252 99.8248C77.9253 99.8188 77.9253 99.8119 77.9252 99.8054C77.9332 99.5744 77.8559 99.2522 77.5955 99.0491C77.3285 98.8411 77.0836 98.8345 76.8392 98.8358C76.7091 98.8368 76.4838 98.8308 76.2381 98.797C76.001 98.7644 75.6627 98.6987 75.2103 98.603C74.5662 98.4448 73.8737 98.3267 73.0965 98.2346C72.3125 98.1418 71.4236 98.0817 70.4397 98.0795ZM126.599 98.0795C121.935 98.1724 118.077 99.2869 115.061 101.454C112.089 103.589 109.863 106.209 108.448 109.288C107.049 112.333 106.341 115.306 106.354 118.189C106.338 121.347 107.039 124.467 108.41 127.517C109.794 130.597 111.991 133.159 114.945 135.196C117.938 137.26 121.77 138.319 126.444 138.396C126.45 138.396 126.457 138.396 126.464 138.396C127.876 138.384 129.337 138.217 130.827 137.892C132.175 137.597 133.262 137.2 134.22 136.747L142.385 141.266C146.425 143.523 150.142 145.204 153.535 146.327C156.934 147.452 160.167 148.016 163.231 148.014C163.237 148.014 163.244 148.014 163.251 148.014C166.998 147.951 170.243 147.553 173.005 146.773C175.721 146.006 177.812 145.261 179.307 144.524C179.307 144.518 179.307 144.511 179.307 144.504C179.489 144.413 179.652 144.334 179.831 144.097C179.837 144.097 179.844 144.097 179.85 144.097C180.006 143.89 180.048 143.641 180.044 143.457C180.044 143.239 179.912 143.014 179.811 142.895C179.675 142.732 179.401 142.592 179.171 142.584C179.159 142.584 179.146 142.584 179.133 142.584C178.986 142.588 178.828 142.622 178.648 142.681C178.513 142.726 178.402 142.768 178.26 142.817C178.254 142.817 178.247 142.817 178.241 142.817C176.517 143.495 174.795 143.993 173.082 144.291C171.354 144.592 169.86 144.724 168.622 144.718C168.603 144.717 168.583 144.717 168.564 144.718C167.423 144.813 164.979 144.579 161.389 143.923C157.869 143.279 153.362 141.597 147.892 138.9L138.448 134.033C140.123 132.829 141.801 131.089 143.529 128.583C145.563 125.632 146.66 121.902 146.825 117.413C146.826 117.401 146.826 117.388 146.825 117.375C146.708 111.411 144.767 106.659 141.027 103.257C137.3 99.8678 132.459 98.1368 126.619 98.0795C126.613 98.0794 126.606 98.0794 126.599 98.0795ZM81.7454 98.7776C81.4138 98.7756 81.1429 98.8164 80.8921 98.9327C80.5977 99.0694 80.3468 99.4618 80.3491 99.786C80.349 99.792 80.349 99.7989 80.3491 99.8054C80.3581 100.026 80.5477 100.372 80.7563 100.504C80.9211 100.608 81.1284 100.678 81.3381 100.678C81.5577 100.678 81.8457 100.693 82.172 100.717C82.4835 100.74 82.7305 100.773 82.9089 100.814C82.9149 100.814 82.9218 100.814 82.9283 100.814C83.6445 100.961 84.028 101.204 84.2082 101.473C84.4103 101.775 84.5487 102.326 84.5766 103.102C84.5765 103.108 84.5765 103.115 84.5766 103.121C84.6229 103.762 84.6632 104.771 84.6736 106.147C84.6839 107.523 84.6756 110.091 84.6736 113.845V122.63C84.6786 125.045 84.6796 127.189 84.6542 129.049C84.6284 130.905 84.5759 132.359 84.4603 133.393C84.3795 134.089 84.2431 134.655 84.0724 135.08C83.9325 135.428 83.7625 135.551 83.4519 135.623C83.2431 135.67 83.0128 135.72 82.7538 135.758C82.5121 135.794 82.3003 135.795 82.0945 135.797C82.0885 135.797 82.0815 135.797 82.075 135.797C81.8404 135.802 81.5949 135.855 81.3769 136.069C81.2721 136.172 81.0785 136.426 81.0861 136.709C81.0841 137.033 81.3346 137.406 81.629 137.543C81.8799 137.659 82.1506 137.7 82.4823 137.698C83.3368 137.692 84.3182 137.664 85.4105 137.62C86.4772 137.577 87.0774 137.549 87.2527 137.543C87.2557 137.543 87.2878 137.542 87.2915 137.543C87.4908 137.55 88.179 137.577 89.3859 137.62C90.6208 137.664 91.973 137.691 93.4195 137.698C93.7399 137.693 94.0199 137.664 94.2921 137.523C94.5526 137.388 94.7854 137.031 94.7963 136.709C94.7965 136.703 94.7962 136.695 94.7963 136.689C94.7963 136.685 94.7913 136.672 94.7963 136.67C94.7829 136.409 94.6231 136.165 94.5248 136.069C94.307 135.855 94.0613 135.802 93.8267 135.797C93.8207 135.797 93.8138 135.797 93.8073 135.797C93.5831 135.795 93.2647 135.777 92.8377 135.739C92.4062 135.7 92.0148 135.673 91.6548 135.623C91.05 135.53 90.7647 135.32 90.6076 135.022C90.399 134.625 90.2685 134.088 90.2198 133.412C90.2138 133.405 90.2069 133.399 90.2003 133.393C90.0848 132.359 90.0323 130.905 90.0064 129.049C89.9804 127.185 89.9624 125.041 89.9676 122.63V102.132C89.9656 101.945 89.9922 101.817 90.0258 101.725C90.1906 101.657 90.45 101.575 90.7821 101.531C91.139 101.485 91.5193 101.473 91.9263 101.473C91.9457 101.474 91.9651 101.474 91.9845 101.473C92.4853 101.421 93.4182 101.487 94.68 101.706C95.8 101.9 97.0055 102.571 98.3063 103.781C99.5283 105.121 100.264 106.434 100.556 107.737C100.868 109.133 100.987 110.233 100.944 111.014C100.944 111.02 100.944 111.027 100.944 111.033C100.89 113.247 100.135 115.017 98.636 116.424C97.1361 117.832 95.2571 118.527 92.8959 118.577C92.3568 118.57 92.0226 118.599 91.6936 118.693C91.4928 118.751 91.2815 118.868 91.1506 119.062C91.0197 119.255 90.9669 119.473 90.9761 119.663C90.976 119.669 90.976 119.676 90.9761 119.682C90.9927 119.964 91.2665 120.325 91.4997 120.439C91.632 120.503 91.8136 120.556 92.0233 120.574C92.0379 120.575 92.047 120.574 92.062 120.574C92.0863 120.575 92.095 120.594 92.1202 120.594C92.2837 120.616 92.4385 120.628 92.6245 120.633C92.8522 120.639 93.0384 120.634 93.1674 120.633C96.8929 120.579 99.9951 119.423 102.359 117.181C104.728 114.934 105.973 111.9 106.044 108.183C106.044 108.17 106.044 108.157 106.044 108.144C106.006 106.733 105.698 105.45 105.132 104.324C104.605 103.273 104.038 102.463 103.406 101.861C103.386 101.842 103.369 101.802 103.348 101.783L103.329 101.803C102.829 101.2 101.981 100.678 100.614 99.9993C99.0791 99.2371 96.7986 98.8503 93.691 98.7776C93.685 98.7775 93.6781 98.7775 93.6716 98.7776C92.4672 98.7836 91.2479 98.8114 90.0453 98.8552C88.8495 98.8988 87.9748 98.9267 87.3885 98.9328C87.1358 98.9268 86.4233 98.8989 85.2748 98.8552C84.1206 98.8114 82.9446 98.7839 81.7454 98.7776ZM146.457 98.7776C146.125 98.7756 145.855 98.8164 145.604 98.9327C145.309 99.0694 145.058 99.4617 145.061 99.786C145.061 99.792 145.061 99.7989 145.061 99.8054C145.07 100.026 145.259 100.372 145.468 100.504C145.633 100.608 145.84 100.678 146.05 100.678C146.269 100.678 146.557 100.693 146.884 100.717C147.195 100.74 147.442 100.773 147.62 100.814C147.626 100.814 147.633 100.814 147.64 100.814C148.356 100.961 148.74 101.204 148.92 101.473C149.122 101.775 149.26 102.326 149.288 103.102C149.288 103.108 149.288 103.115 149.288 103.121C149.334 103.762 149.375 104.771 149.385 106.147C149.395 107.523 149.387 110.091 149.385 113.845V122.63C149.39 125.045 149.391 127.189 149.366 129.049C149.34 130.905 149.287 132.359 149.172 133.393C149.091 134.089 148.955 134.655 148.784 135.08C148.644 135.428 148.474 135.551 148.163 135.623C147.955 135.67 147.724 135.72 147.465 135.758C147.224 135.794 147.012 135.795 146.806 135.797C146.8 135.797 146.793 135.797 146.787 135.797C146.552 135.802 146.306 135.855 146.089 136.069C145.984 136.172 145.79 136.426 145.798 136.709C145.796 137.033 146.046 137.406 146.341 137.543C146.591 137.659 146.862 137.7 147.194 137.698C148.05 137.692 149.021 137.664 150.103 137.62C151.147 137.578 151.711 137.55 151.867 137.543C151.872 137.543 151.92 137.542 151.926 137.543C152.132 137.55 152.805 137.578 154.001 137.62C155.235 137.664 156.588 137.691 158.034 137.698C158.355 137.693 158.634 137.664 158.907 137.523C159.167 137.388 159.4 137.031 159.411 136.709C159.411 136.703 159.411 136.695 159.411 136.689C159.411 136.685 159.406 136.672 159.411 136.67C159.398 136.409 159.238 136.165 159.139 136.069C158.922 135.855 158.676 135.802 158.441 135.797C158.435 135.797 158.428 135.797 158.422 135.797C158.198 135.795 157.879 135.777 157.452 135.739C157.019 135.7 156.607 135.673 156.25 135.623C155.647 135.53 155.385 135.331 155.222 135.022C155.014 134.625 154.883 134.088 154.834 133.412C154.828 133.405 154.822 133.399 154.815 133.393C154.699 132.359 154.647 130.905 154.621 129.049C154.595 127.185 154.577 125.041 154.582 122.63V121.641L160.477 121.738C160.548 121.738 160.542 121.731 160.555 121.738C160.617 121.77 160.651 121.793 160.691 121.835C161.215 122.529 161.953 123.568 162.94 124.938C163.949 126.337 164.998 127.754 166.082 129.185C167.479 131.064 168.709 132.606 169.747 133.839C170.809 135.101 171.879 136.05 173.005 136.67C173.68 137.049 174.427 137.309 175.274 137.465C176.125 137.622 177.243 137.702 178.629 137.698H182.177C182.656 137.7 183.002 137.662 183.302 137.562C183.464 137.508 183.632 137.421 183.767 137.252C183.903 137.082 183.969 136.853 183.961 136.67C183.952 136.456 183.771 136.136 183.593 136.011C183.385 135.864 183.16 135.803 182.934 135.797C182.921 135.797 182.908 135.797 182.895 135.797C182.772 135.8 182.545 135.793 182.216 135.778C181.917 135.764 181.538 135.732 181.072 135.662C181.059 135.655 181.046 135.648 181.033 135.642C180.514 135.593 179.726 135.366 178.725 134.905C177.799 134.479 176.638 133.6 175.312 132.249C173.884 130.706 172.33 128.857 170.62 126.702C168.999 124.661 167.195 122.389 165.287 119.935C167.32 117.979 168.845 116.072 169.747 114.214C170.7 112.251 171.174 110.297 171.143 108.357C171.143 108.351 171.143 108.345 171.143 108.338C171.075 106.525 170.647 104.958 169.805 103.684C169.01 102.481 168.237 101.618 167.439 101.085C166.031 100.118 164.481 99.4841 162.824 99.1849C161.209 98.8935 159.586 98.75 157.956 98.7777C157.06 98.7837 155.967 98.8116 154.64 98.8553C153.327 98.8986 152.479 98.9266 152.1 98.9329C152.098 98.9328 152.083 98.933 152.081 98.9329C151.883 98.9269 151.211 98.8986 150.044 98.8553C148.862 98.8115 147.665 98.7839 146.457 98.7776ZM125.494 100.988C125.745 100.978 126.012 100.988 126.27 100.988C130.199 101.006 133.521 102.482 136.373 105.507C139.191 108.496 140.696 112.9 140.833 118.81C140.747 123.525 139.886 127.004 138.351 129.34C136.77 131.745 134.989 133.34 132.999 134.149C130.925 134.992 129.153 135.346 127.685 135.293C127.679 135.293 127.672 135.293 127.666 135.293C123.217 135.226 119.641 133.59 116.768 130.309C113.905 127.041 112.41 122.557 112.307 116.773C112.392 111.405 113.733 107.505 116.283 104.906C118.698 102.443 121.726 101.141 125.494 100.988ZM156.657 101.589C156.986 101.577 157.346 101.591 157.724 101.589C160.293 101.614 162.198 102.405 163.6 104.013C165 105.621 165.727 107.906 165.752 110.956C165.735 112.802 165.458 114.319 164.938 115.532C164.409 116.765 163.752 117.623 162.979 118.15C162.453 118.501 161.92 118.718 161.35 118.829C160.737 118.948 160.148 118.994 159.585 118.984C159.579 118.984 159.572 118.984 159.566 118.984C158.46 118.979 157.446 118.915 156.502 118.771C155.557 118.627 154.898 118.423 154.621 118.267C154.511 118.198 154.58 118.263 154.582 118.208C154.582 118.202 154.582 118.196 154.582 118.189V101.88C154.583 101.838 154.568 101.843 154.563 101.842C154.568 101.846 154.583 101.849 154.602 101.842C154.804 101.785 155.185 101.722 155.746 101.667C156.029 101.639 156.328 101.601 156.657 101.589ZM52.7153 117.685C51.8015 117.701 45.781 127.85 44.7064 131.415C43.273 136.169 43.3002 141.231 44.7646 145.241C45.8875 148.316 45.9186 148.352 46.9947 147.355C48.3248 146.123 49.9601 142.905 51.0282 139.443C51.6542 137.414 52.7459 124.406 52.8317 117.918C52.8337 117.763 52.7928 117.684 52.7153 117.685ZM211.731 155.752C211.314 155.772 210.561 155.957 209.501 156.314C208.189 156.756 205.78 157.385 204.149 157.73C199.746 158.66 192.409 162.648 188.829 166.03C186.236 168.478 182.914 173.028 182.914 174.135C182.914 174.29 183.584 174.529 184.407 174.659C187.217 175.104 193.523 173.593 196.043 171.867C202.728 167.286 204.476 165.615 207.658 160.774C208.688 159.208 210.169 157.501 210.955 156.973C212.198 156.139 212.425 155.718 211.731 155.752ZM42.2436 180.283C41.8663 180.294 41.6225 180.323 41.5454 180.38C41.4544 180.447 44.1009 182.43 47.4213 184.782C53.4181 189.03 55.0423 189.849 61.306 191.841C65.051 193.031 70.6845 192.881 73.9303 191.491L75.8889 190.658L73.7558 188.738C72.588 187.687 70.0386 186.043 68.0933 185.073C66.148 184.102 64.182 183.105 63.7107 182.862C62.153 182.057 45.8906 180.178 42.2436 180.283ZM197.768 180.496C196.251 180.477 193.031 180.686 187.103 181.194C179.736 181.826 174.695 183.394 170.232 186.43C166.197 189.173 165.235 190.31 166.237 191.162C166.661 191.523 168.075 192.043 169.378 192.306C174.177 193.272 178.327 192.676 184.427 190.173C187.042 189.099 198.249 181.819 198.874 180.787C198.984 180.606 198.679 180.508 197.768 180.496ZM157.821 197.348C154.182 197.348 147.09 198.863 144.964 200.082C143.946 200.666 147.51 203.147 151.402 204.581C153.518 205.361 155.805 205.672 159.469 205.686C163.932 205.704 165.578 205.407 172.404 203.34C179.359 201.234 180.024 200.934 178.435 200.586C170.005 198.739 161.176 197.348 157.821 197.348ZM82.5986 197.464C79.7133 197.493 76.6726 197.813 73.6394 198.434C70.7388 199.027 66.5692 199.818 64.37 200.198L60.3752 200.897L62.7411 201.575C64.0425 201.948 67.5634 203.011 70.5561 203.941C79.9821 206.871 90.1556 206.023 94.7381 201.924L96.4834 200.354L95.0871 199.694C91.8116 198.165 87.4075 197.416 82.5986 197.464Z" fill="#F0C233"/>
</svg>
