<svg width="30" height="30" viewBox="0 0 30 30" fill="none" xmlns="http://www.w3.org/2000/svg">
<mask id="path-1-inside-1_245_367" fill="white">
<path fill-rule="evenodd" clip-rule="evenodd" d="M22.4244 3C20.8166 3 19.4569 4.10657 19.0641 5.5922L18.6315 5.39122C18.5543 5.35534 18.4703 5.33676 18.3852 5.33676C18.3001 5.33676 18.216 5.35534 18.1389 5.39122L10.9846 8.71466L3.83034 5.39145C3.74132 5.35011 3.64331 5.33186 3.54538 5.33839C3.44744 5.34492 3.35273 5.37602 3.26999 5.42882C3.18724 5.48161 3.11914 5.5544 3.07195 5.64047C3.02476 5.72653 3.00002 5.8231 3 5.92125V22.3473C2.99997 22.4587 3.03179 22.5678 3.09171 22.6617C3.15162 22.7556 3.23713 22.8304 3.33816 22.8773L10.7385 26.3148C10.8157 26.3507 10.8997 26.3693 10.9848 26.3693C11.0699 26.3693 11.154 26.3507 11.2311 26.3148L18.3854 22.9916L25.5397 26.3148C25.9269 26.4946 26.37 26.212 26.37 25.7853V9.35921C26.37 9.24782 26.3382 9.13874 26.2783 9.04483C26.2184 8.95092 26.1329 8.8761 26.0318 8.82918L25.277 8.47816L25.5133 8.07573C25.567 7.97828 25.6098 7.87451 25.6465 7.76841C25.8157 7.35595 25.9027 6.9144 25.9026 6.46857C25.9026 4.56228 24.3363 3 22.4244 3ZM22.4244 4.62492C23.4539 4.62492 24.2725 5.44193 24.2725 6.46857C24.2725 7.49498 23.4539 8.3113 22.4244 8.3113C21.395 8.3113 20.5763 7.49498 20.5763 6.46857C20.5763 5.44193 21.395 4.62492 22.4244 4.62492ZM18.6464 6.68662L18.9683 6.83642C19.031 7.42038 19.2422 7.97856 19.5817 8.45783L22 12.6387C22.3389 13.0813 22.5642 12.9972 22.8458 12.6154L24.682 9.49008L25.2015 9.73173V24.8696L18.7332 21.865L18.6803 12.5927C18.7757 12.6132 18.8708 12.6331 18.9664 12.6558L19.1814 11.7465C19.0132 11.7067 18.8442 11.6698 18.6747 11.6359L18.6467 6.68662H18.6464ZM17.9458 6.76935L17.9727 11.5219C17.7313 11.4887 17.4886 11.4668 17.2452 11.4562L17.2106 12.3901C17.4649 12.3994 17.7212 12.427 17.9783 12.4644L18.0321 21.8671L11.3305 24.9806L11.2442 9.8827L17.9458 6.76935ZM4.1685 6.83689L10.5427 9.79786L10.6294 24.976L4.1685 21.9743V6.83689ZM16.2141 11.52C15.8923 11.5777 15.563 11.6808 15.2564 11.8591C14.8896 12.0715 14.588 12.3802 14.3842 12.7518L15.2026 13.2033C15.3246 12.9813 15.5043 12.7965 15.7229 12.6684L15.7243 12.6675L15.7257 12.6665C15.9143 12.5567 16.1388 12.4828 16.3793 12.4398L16.2141 11.52ZM20.1089 11.9946L19.8442 12.8906C20.4291 13.0636 21.0085 13.2622 21.5845 13.4772L21.9115 12.6013C21.3197 12.3807 20.7196 12.1751 20.1089 11.9946ZM14.0323 13.7698L14.0253 13.8068L14.0246 13.81C13.9079 14.4716 13.9203 15.1227 13.9465 15.7416L14.8804 15.7018C14.8549 15.1014 14.8495 14.5205 14.9451 13.9753L14.9507 13.946L14.0323 13.7698ZM14.936 16.6233L14.0035 16.6864C14.0456 17.3101 14.0905 17.9215 14.0888 18.5209L15.0236 18.5233C15.0255 17.8759 14.9781 17.2431 14.936 16.6233ZM14.0423 19.402C14.0166 19.6247 13.9783 19.8414 13.9222 20.0493L13.9217 20.0505L13.9213 20.0524C13.8395 20.3644 13.7018 20.6532 13.5097 20.8794L14.2218 21.4847C14.5228 21.1307 14.7137 20.714 14.8248 20.2924L14.8252 20.291C14.8953 20.0302 14.9409 19.7675 14.9708 19.5081L14.0423 19.402ZM6.15074 20.313L5.73102 21.1482C6.31059 21.4396 6.91003 21.6806 7.51368 21.889L7.81866 21.0054C7.24493 20.8075 6.68475 20.5812 6.15074 20.313ZM8.68312 21.2742L8.43446 22.1753C9.05283 22.3461 9.68849 22.4819 10.3382 22.5551L10.4424 21.6261C9.85325 21.56 9.26573 21.4352 8.68312 21.2742ZM12.9227 21.3401C12.4571 21.5784 11.8951 21.6665 11.3172 21.6736L11.3288 22.6084C11.9911 22.6004 12.6993 22.5046 13.3485 22.172L12.9227 21.3401Z"/>
</mask>
<path fill-rule="evenodd" clip-rule="evenodd" d="M22.4244 3C20.8166 3 19.4569 4.10657 19.0641 5.5922L18.6315 5.39122C18.5543 5.35534 18.4703 5.33676 18.3852 5.33676C18.3001 5.33676 18.216 5.35534 18.1389 5.39122L10.9846 8.71466L3.83034 5.39145C3.74132 5.35011 3.64331 5.33186 3.54538 5.33839C3.44744 5.34492 3.35273 5.37602 3.26999 5.42882C3.18724 5.48161 3.11914 5.5544 3.07195 5.64047C3.02476 5.72653 3.00002 5.8231 3 5.92125V22.3473C2.99997 22.4587 3.03179 22.5678 3.09171 22.6617C3.15162 22.7556 3.23713 22.8304 3.33816 22.8773L10.7385 26.3148C10.8157 26.3507 10.8997 26.3693 10.9848 26.3693C11.0699 26.3693 11.154 26.3507 11.2311 26.3148L18.3854 22.9916L25.5397 26.3148C25.9269 26.4946 26.37 26.212 26.37 25.7853V9.35921C26.37 9.24782 26.3382 9.13874 26.2783 9.04483C26.2184 8.95092 26.1329 8.8761 26.0318 8.82918L25.277 8.47816L25.5133 8.07573C25.567 7.97828 25.6098 7.87451 25.6465 7.76841C25.8157 7.35595 25.9027 6.9144 25.9026 6.46857C25.9026 4.56228 24.3363 3 22.4244 3ZM22.4244 4.62492C23.4539 4.62492 24.2725 5.44193 24.2725 6.46857C24.2725 7.49498 23.4539 8.3113 22.4244 8.3113C21.395 8.3113 20.5763 7.49498 20.5763 6.46857C20.5763 5.44193 21.395 4.62492 22.4244 4.62492ZM18.6464 6.68662L18.9683 6.83642C19.031 7.42038 19.2422 7.97856 19.5817 8.45783L22 12.6387C22.3389 13.0813 22.5642 12.9972 22.8458 12.6154L24.682 9.49008L25.2015 9.73173V24.8696L18.7332 21.865L18.6803 12.5927C18.7757 12.6132 18.8708 12.6331 18.9664 12.6558L19.1814 11.7465C19.0132 11.7067 18.8442 11.6698 18.6747 11.6359L18.6467 6.68662H18.6464ZM17.9458 6.76935L17.9727 11.5219C17.7313 11.4887 17.4886 11.4668 17.2452 11.4562L17.2106 12.3901C17.4649 12.3994 17.7212 12.427 17.9783 12.4644L18.0321 21.8671L11.3305 24.9806L11.2442 9.8827L17.9458 6.76935ZM4.1685 6.83689L10.5427 9.79786L10.6294 24.976L4.1685 21.9743V6.83689ZM16.2141 11.52C15.8923 11.5777 15.563 11.6808 15.2564 11.8591C14.8896 12.0715 14.588 12.3802 14.3842 12.7518L15.2026 13.2033C15.3246 12.9813 15.5043 12.7965 15.7229 12.6684L15.7243 12.6675L15.7257 12.6665C15.9143 12.5567 16.1388 12.4828 16.3793 12.4398L16.2141 11.52ZM20.1089 11.9946L19.8442 12.8906C20.4291 13.0636 21.0085 13.2622 21.5845 13.4772L21.9115 12.6013C21.3197 12.3807 20.7196 12.1751 20.1089 11.9946ZM14.0323 13.7698L14.0253 13.8068L14.0246 13.81C13.9079 14.4716 13.9203 15.1227 13.9465 15.7416L14.8804 15.7018C14.8549 15.1014 14.8495 14.5205 14.9451 13.9753L14.9507 13.946L14.0323 13.7698ZM14.936 16.6233L14.0035 16.6864C14.0456 17.3101 14.0905 17.9215 14.0888 18.5209L15.0236 18.5233C15.0255 17.8759 14.9781 17.2431 14.936 16.6233ZM14.0423 19.402C14.0166 19.6247 13.9783 19.8414 13.9222 20.0493L13.9217 20.0505L13.9213 20.0524C13.8395 20.3644 13.7018 20.6532 13.5097 20.8794L14.2218 21.4847C14.5228 21.1307 14.7137 20.714 14.8248 20.2924L14.8252 20.291C14.8953 20.0302 14.9409 19.7675 14.9708 19.5081L14.0423 19.402ZM6.15074 20.313L5.73102 21.1482C6.31059 21.4396 6.91003 21.6806 7.51368 21.889L7.81866 21.0054C7.24493 20.8075 6.68475 20.5812 6.15074 20.313ZM8.68312 21.2742L8.43446 22.1753C9.05283 22.3461 9.68849 22.4819 10.3382 22.5551L10.4424 21.6261C9.85325 21.56 9.26573 21.4352 8.68312 21.2742ZM12.9227 21.3401C12.4571 21.5784 11.8951 21.6665 11.3172 21.6736L11.3288 22.6084C11.9911 22.6004 12.6993 22.5046 13.3485 22.172L12.9227 21.3401Z" fill="#F8F8F8" stroke="white" stroke-width="4" mask="url(#path-1-inside-1_245_367)"/>
</svg>
