<svg width="30" height="30" viewBox="0 0 30 30" fill="none" xmlns="http://www.w3.org/2000/svg">
<path d="M20.625 8.4375H24.465C24.6973 8.43773 24.9212 8.52416 25.0933 8.68004C25.2655 8.83592 25.3737 9.05016 25.3969 9.28125L25.9688 15H24.0825L23.6138 10.3125H20.625V13.125C20.625 13.3736 20.5262 13.6121 20.3504 13.7879C20.1746 13.9637 19.9362 14.0625 19.6875 14.0625C19.4389 14.0625 19.2004 13.9637 19.0246 13.7879C18.8488 13.6121 18.75 13.3736 18.75 13.125V10.3125H11.25V13.125C11.25 13.3736 11.1513 13.6121 10.9754 13.7879C10.7996 13.9637 10.5612 14.0625 10.3125 14.0625C10.0639 14.0625 9.82543 13.9637 9.64961 13.7879C9.4738 13.6121 9.37502 13.3736 9.37502 13.125V10.3125H6.3844L4.8844 25.3125H15V27.1875H3.84752C3.71658 27.1874 3.58712 27.1598 3.46747 27.1066C3.34783 27.0534 3.24066 26.9757 3.15287 26.8785C3.06508 26.7814 2.99861 26.6669 2.95776 26.5425C2.9169 26.4181 2.90255 26.2865 2.91565 26.1562L4.60315 9.28125C4.62637 9.05016 4.73455 8.83592 4.90671 8.68004C5.07888 8.52416 5.30277 8.43773 5.53502 8.4375H9.37502V7.78312C9.37502 4.53187 11.88 1.875 15 1.875C18.12 1.875 20.625 4.53187 20.625 7.78312V8.43937V8.4375ZM18.75 8.4375V7.78312C18.75 5.54437 17.0588 3.75 15 3.75C12.9413 3.75 11.25 5.54437 11.25 7.78312V8.43937H18.75V8.4375ZM24.6506 22.3875C24.7362 22.2944 24.8396 22.2196 24.9548 22.1676C25.07 22.1155 25.1945 22.0873 25.3208 22.0846C25.4472 22.0819 25.5728 22.1048 25.6901 22.1518C25.8073 22.1989 25.9139 22.2692 26.0033 22.3585C26.0928 22.4478 26.1632 22.5543 26.2104 22.6715C26.2577 22.7887 26.2807 22.9143 26.2782 23.0407C26.2757 23.167 26.2476 23.2916 26.1957 23.4068C26.1439 23.522 26.0692 23.6256 25.9763 23.7112L22.2263 27.4612C22.0505 27.637 21.812 27.7357 21.5635 27.7357C21.3149 27.7357 21.0765 27.637 20.9006 27.4612L17.1506 23.7112C17.0611 23.6248 16.9897 23.5213 16.9406 23.4069C16.8914 23.2926 16.8656 23.1695 16.8645 23.0451C16.8634 22.9206 16.8871 22.7971 16.9343 22.6819C16.9814 22.5667 17.051 22.462 17.139 22.374C17.2271 22.286 17.3317 22.2164 17.4469 22.1692C17.5622 22.1221 17.6856 22.0984 17.8101 22.0994C17.9346 22.1005 18.0576 22.1264 18.172 22.1755C18.2863 22.2247 18.3898 22.2961 18.4763 22.3856L20.625 24.5362V17.8125C20.625 17.5639 20.7238 17.3254 20.8996 17.1496C21.0754 16.9738 21.3139 16.875 21.5625 16.875C21.8112 16.875 22.0496 16.9738 22.2254 17.1496C22.4012 17.3254 22.5 17.5639 22.5 17.8125V24.5362L24.6506 22.3856V22.3875Z" fill="#F8F8F8"/>
</svg>
