<svg width="30" height="30" viewBox="0 0 30 30" fill="none" xmlns="http://www.w3.org/2000/svg">
<path d="M2.87496 25.3501L14.875 13.3501L13.125 11.5751L12.225 12.4626C12.1093 12.5785 11.972 12.6704 11.8207 12.7332C11.6695 12.7959 11.5074 12.8282 11.3437 12.8282C11.18 12.8282 11.0179 12.7959 10.8667 12.7332C10.7155 12.6704 10.5781 12.5785 10.4625 12.4626L9.57496 11.5751C9.45908 11.4595 9.36715 11.3221 9.30442 11.1709C9.2417 11.0197 9.20941 10.8576 9.20941 10.6939C9.20941 10.5302 9.2417 10.3681 9.30442 10.2168C9.36715 10.0656 9.45908 9.92827 9.57496 9.81263L16.65 2.73763C16.7656 2.62175 16.903 2.52981 17.0542 2.46708C17.2054 2.40436 17.3675 2.37207 17.5312 2.37207C17.6949 2.37207 17.857 2.40436 18.0082 2.46708C18.1595 2.52981 18.2968 2.62175 18.4125 2.73763L19.3 3.62513C19.7875 4.11263 19.7875 4.90013 19.3 5.38763L18.4125 6.25013L20.1875 8.03763C20.3031 7.92175 20.4405 7.82981 20.5917 7.76708C20.7429 7.70436 20.905 7.67207 21.0687 7.67207C21.2324 7.67207 21.3945 7.70436 21.5457 7.76708C21.697 7.82981 21.8343 7.92175 21.95 8.03763C22.4375 8.52513 22.4375 9.32513 21.95 9.81263L23.7125 11.5751L24.6 10.6876C25.0875 10.2001 25.8875 10.2001 26.375 10.6876L27.25 11.5751C27.7375 12.0626 27.7375 12.8626 27.25 13.3501L20.1875 20.4126C19.7 20.9001 18.9 20.9001 18.4125 20.4126L17.5375 19.5376C17.4188 19.4223 17.3244 19.2843 17.26 19.1319C17.1956 18.9794 17.1624 18.8156 17.1624 18.6501C17.1624 18.4846 17.1956 18.3208 17.26 18.1684C17.3244 18.0159 17.4188 17.878 17.5375 17.7626L18.4125 16.8751L16.65 15.1126L4.63746 27.1251C4.52182 27.241 4.38446 27.3329 4.23324 27.3957C4.08203 27.4584 3.91992 27.4907 3.75621 27.4907C3.5925 27.4907 3.4304 27.4584 3.27918 27.3957C3.12797 27.3329 2.99061 27.241 2.87496 27.1251C2.38746 26.6376 2.38746 25.8376 2.87496 25.3501ZM25 23.7501C25.663 23.7501 26.2989 24.0135 26.7677 24.4824C27.2366 24.9512 27.5 25.5871 27.5 26.2501V27.5001H15V26.2501C15 25.5871 15.2634 24.9512 15.7322 24.4824C16.201 24.0135 16.8369 23.7501 17.5 23.7501H25Z" fill="#F8F8F8"/>
</svg>
