<?xml version="1.0" standalone="no"?>
<!DOCTYPE svg PUBLIC "-//W3C//DTD SVG 20010904//EN"
 "http://www.w3.org/TR/2001/REC-SVG-20010904/DTD/svg10.dtd">
<svg version="1.0" xmlns="http://www.w3.org/2000/svg"
 width="500.000000pt" height="253.000000pt" viewBox="0 0 500.000000 253.000000"
 preserveAspectRatio="xMidYMid meet">

<g transform="translate(0.000000,253.000000) scale(0.100000,-0.100000)"
fill="white" stroke="none">
<path d="M1167 2220 c-61 -38 -127 -100 -162 -149 -24 -36 -30 -39 -60 -34
-65 11 -125 -51 -112 -116 5 -25 1 -32 -34 -57 -75 -52 -179 -182 -179 -224 0
-18 36 -11 76 16 50 33 140 120 164 159 18 29 21 30 72 25 51 -5 54 -7 100
-68 70 -92 88 -161 88 -333 l0 -138 185 -3 c102 -2 185 -2 185 0 0 1 -43 68
-95 147 -52 80 -95 147 -95 150 0 3 38 5 85 5 l85 0 62 -95 c35 -52 65 -95 68
-95 3 0 34 43 68 95 l62 95 86 0 c69 0 85 -3 81 -14 -3 -7 -46 -75 -96 -149
-50 -75 -91 -137 -91 -139 0 -2 83 -2 184 0 l184 3 4 157 c5 182 19 230 94
325 45 57 46 57 100 57 30 0 54 -4 54 -10 0 -5 27 -38 60 -74 64 -68 144 -126
174 -126 57 0 -70 174 -177 245 -21 14 -25 22 -20 46 13 64 -47 127 -112 116
-29 -5 -35 -1 -67 42 -65 87 -198 185 -220 163 -24 -24 89 -173 175 -232 32
-22 34 -26 30 -69 -4 -38 -12 -53 -46 -85 -23 -21 -71 -53 -107 -70 l-65 -31
-355 0 -355 0 -65 31 c-36 17 -84 49 -107 70 -35 33 -42 46 -46 87 -2 26 -1
47 4 47 18 0 159 143 184 187 25 41 28 73 7 73 -4 0 -29 -13 -55 -30z m-209
-276 c4 -29 -23 -51 -43 -34 -16 13 -20 42 -8 54 14 14 48 1 51 -20z m1340 0
c4 -29 -23 -51 -43 -34 -16 13 -20 42 -8 54 14 14 48 1 51 -20z"/>
<path d="M3705 1475 c-62 -22 -111 -81 -125 -151 -25 -117 10 -234 83 -282 37
-24 50 -27 132 -27 82 0 95 3 132 27 112 74 125 299 24 391 -62 56 -160 73
-246 42z m164 -91 c66 -55 68 -211 4 -270 -37 -34 -119 -34 -156 0 -63 58 -61
211 3 269 42 37 106 38 149 1z"/>
<path d="M2800 1245 l0 -235 45 0 45 0 0 84 0 83 66 6 c41 4 79 15 101 28 87
54 83 203 -7 251 -27 14 -57 18 -142 18 l-108 0 0 -235z m177 154 c15 -5 31
-16 35 -22 10 -15 10 -69 0 -83 -13 -19 -50 -34 -86 -34 l-36 0 0 68 c0 38 3
72 7 75 10 10 48 8 80 -4z"/>
<path d="M3220 1245 l0 -235 140 0 140 0 0 40 0 40 -95 0 -95 0 0 195 0 195
-45 0 -45 0 0 -235z"/>
<path d="M4120 1245 l0 -235 50 0 50 0 0 95 0 95 25 0 c21 0 36 -16 87 -95
l60 -95 49 0 c27 0 49 2 49 5 0 3 -29 49 -65 102 l-65 97 35 29 c81 66 60 189
-38 226 -16 6 -75 11 -133 11 l-104 0 0 -235z m213 138 c23 -21 22 -66 -3 -88
-10 -9 -40 -20 -65 -22 l-45 -6 0 73 0 72 48 -7 c26 -4 55 -14 65 -22z"/>
<path d="M1119 1077 c-4 -160 -5 -164 -36 -228 -18 -37 -50 -85 -70 -107 -32
-34 -46 -41 -85 -45 -45 -4 -48 -3 -74 35 -60 85 -203 193 -226 170 -24 -24
97 -182 178 -232 29 -18 32 -25 27 -51 -13 -66 46 -127 114 -116 18 3 33 2 33
-2 0 -15 111 -130 158 -165 104 -76 134 -51 59 50 -41 56 -89 104 -148 149
-24 18 -26 24 -20 70 6 47 10 53 69 97 108 82 142 88 502 88 360 0 394 -6 502
-88 59 -44 63 -50 69 -97 6 -46 4 -52 -20 -69 -14 -11 -56 -49 -92 -86 -104
-106 -128 -184 -45 -145 43 20 153 120 186 168 21 30 28 34 55 30 68 -11 122
45 111 114 -4 28 0 35 27 52 40 25 127 114 161 165 27 40 34 76 16 76 -41 0
-176 -110 -236 -191 -17 -24 -23 -26 -69 -20 -47 6 -53 10 -97 69 -70 92 -88
161 -88 333 l0 139 -186 0 c-145 0 -184 -3 -178 -12 4 -7 47 -73 96 -145 48
-73 88 -135 88 -138 0 -3 -38 -5 -85 -5 l-85 0 -62 95 c-35 52 -65 95 -68 95
-3 0 -33 -43 -68 -95 l-62 -95 -85 0 c-47 0 -85 2 -85 5 0 3 40 65 88 138 49
72 92 138 96 145 6 9 -32 12 -177 12 l-185 0 -3 -163z m-164 -477 c0 -18 -6
-26 -23 -28 -13 -2 -25 3 -28 12 -10 26 4 48 28 44 17 -2 23 -10 23 -28z
m1340 0 c0 -18 -6 -26 -23 -28 -13 -2 -25 3 -28 12 -10 26 4 48 28 44 17 -2
23 -10 23 -28z"/>
<path d="M2370 1190 l0 -40 85 0 85 0 0 40 0 40 -85 0 -85 0 0 -40z"/>
</g>
</svg>
