<svg width="25" height="25" viewBox="0 0 25 25" fill="none" xmlns="http://www.w3.org/2000/svg">
<path fill-rule="evenodd" clip-rule="evenodd" d="M8.16979 3.96058C10.2833 2.70954 11.3396 2.0835 12.5 2.0835C13.6604 2.0835 14.7167 2.7085 16.8302 3.96058L17.5448 4.3835C19.6583 5.63558 20.7146 6.26162 21.2948 7.29183C21.875 8.32308 21.875 9.57308 21.875 12.0772V12.9231C21.875 15.4262 21.875 16.6783 21.2948 17.7085C20.7146 18.7397 19.6583 19.3647 17.5448 20.6158L16.8302 21.0397C14.7167 22.2908 13.6604 22.9168 12.5 22.9168C11.3396 22.9168 10.2833 22.2918 8.16979 21.0397L7.45521 20.6158C5.34167 19.3658 4.28542 18.7387 3.70521 17.7085C3.125 16.6772 3.125 15.4272 3.125 12.9231V12.0772C3.125 9.57308 3.125 8.32204 3.70521 7.29183C4.28542 6.26058 5.34167 5.63558 7.45521 4.3835L8.16979 3.96058ZM13.5417 16.6668C13.5417 16.9431 13.4319 17.2081 13.2366 17.4034C13.0412 17.5988 12.7763 17.7085 12.5 17.7085C12.2237 17.7085 11.9588 17.5988 11.7634 17.4034C11.5681 17.2081 11.4583 16.9431 11.4583 16.6668C11.4583 16.3906 11.5681 16.1256 11.7634 15.9303C11.9588 15.7349 12.2237 15.6252 12.5 15.6252C12.7763 15.6252 13.0412 15.7349 13.2366 15.9303C13.4319 16.1256 13.5417 16.3906 13.5417 16.6668ZM12.5 6.51058C12.7072 6.51058 12.9059 6.59289 13.0524 6.7394C13.1989 6.88592 13.2812 7.08463 13.2812 7.29183V13.5418C13.2812 13.749 13.1989 13.9477 13.0524 14.0943C12.9059 14.2408 12.7072 14.3231 12.5 14.3231C12.2928 14.3231 12.0941 14.2408 11.9476 14.0943C11.8011 13.9477 11.7188 13.749 11.7188 13.5418V7.29183C11.7188 7.08463 11.8011 6.88592 11.9476 6.7394C12.0941 6.59289 12.2928 6.51058 12.5 6.51058Z" fill="black"/>
</svg>
