<svg width="25" height="25" viewBox="0 0 25 25" fill="none" xmlns="http://www.w3.org/2000/svg">
<g clip-path="url(#clip0_245_386)">
<path d="M22.2656 3.28102C21.997 3.10725 21.6898 3.00211 21.3711 2.97487C21.0523 2.94762 20.7317 2.9991 20.4375 3.12477L10.7969 6.92165C10.5686 7.01454 10.3245 7.0623 10.0781 7.06227H3.90625C3.38825 7.06227 2.89146 7.26805 2.52518 7.63433C2.1589 8.00061 1.95312 8.4974 1.95312 9.0154V9.17165H0V13.8591H1.95312V14.0623C1.96536 14.5721 2.17653 15.0569 2.54149 15.4131C2.90646 15.7693 3.39627 15.9687 3.90625 15.9685L6.25 20.9373C6.4087 21.2719 6.65856 21.5549 6.97088 21.7539C7.2832 21.9529 7.64531 22.0598 8.01562 22.0623H9C9.51529 22.0582 10.0081 21.8506 10.371 21.4847C10.7339 21.1189 10.9375 20.6245 10.9375 20.1091V16.156L20.4375 19.9529C20.6712 20.0459 20.9204 20.0936 21.1719 20.0935C21.562 20.0872 21.942 19.9678 22.2656 19.7498C22.5226 19.5763 22.7346 19.344 22.884 19.0723C23.0335 18.8006 23.1161 18.4972 23.125 18.1873V4.8904C23.1236 4.57246 23.0445 4.25967 22.8948 3.9792C22.745 3.69874 22.529 3.45907 22.2656 3.28102ZM8.98438 9.0154V14.0623H3.90625V9.0154H8.98438ZM8.98438 20.1091H8L6.07812 15.9685H8.98438V20.1091ZM11.5156 14.2966C11.3301 14.2018 11.1367 14.1234 10.9375 14.0623V8.90602C11.1348 8.86532 11.3282 8.80782 11.5156 8.73415L21.1719 4.8904V18.1404L11.5156 14.2966ZM23.1719 9.56227V13.4685C23.6899 13.4685 24.1867 13.2627 24.5529 12.8965C24.9192 12.5302 25.125 12.0334 25.125 11.5154C25.125 10.9974 24.9192 10.5006 24.5529 10.1343C24.1867 9.76805 23.6899 9.56227 23.1719 9.56227Z" fill="black"/>
</g>
<defs>
<clipPath id="clip0_245_386">
<rect width="25" height="25" fill="white"/>
</clipPath>
</defs>
</svg>
